<?xml version="1.0" standalone="no"?>
<!DOCTYPE svg PUBLIC "-//W3C//DTD SVG 20010904//EN"
 "http://www.w3.org/TR/2001/REC-SVG-20010904/DTD/svg10.dtd">
<svg version="1.0" xmlns="http://www.w3.org/2000/svg"
 width="500.000000pt" height="500.000000pt" viewBox="0 0 500.000000 500.000000"
 preserveAspectRatio="xMidYMid meet">

<g transform="translate(0.000000,500.000000) scale(0.100000,-0.100000)"
fill="#000000" stroke="none">
<path d="M2520 4678 l0 -43 55 3 55 4 0 39 c0 41 -7 47 -29 27 -11 -10 -14
-10 -18 0 -3 6 -18 12 -34 12 -27 0 -29 -2 -29 -42z m70 1 c0 -5 -6 -8 -12 -6
-7 1 -12 -3 -11 -10 2 -7 -4 -10 -13 -6 -15 5 -15 7 0 15 9 5 14 13 11 19 -3
5 1 6 9 3 9 -3 16 -10 16 -15z"/>
<path d="M2490 4574 c-24 -14 -23 -14 16 -8 26 4 44 2 48 -5 9 -13 26 -15 26
-2 0 5 -8 11 -17 14 -10 2 -25 7 -33 10 -8 3 -26 -1 -40 -9z"/>
<path d="M2415 4540 c-13 -5 -14 -9 -5 -9 8 0 24 4 35 9 13 5 14 9 5 9 -8 0
-24 -4 -35 -9z"/>
<path d="M2505 4530 c-3 -5 -15 -10 -26 -10 -10 0 -19 -4 -19 -10 0 -5 -7 -7
-15 -4 -8 4 -15 1 -15 -5 0 -6 -9 -11 -20 -11 -11 0 -20 -4 -20 -10 0 -5 -9
-10 -20 -10 -11 0 -20 -4 -20 -9 0 -5 -15 -13 -32 -16 -18 -4 -35 -11 -38 -14
-3 -4 -22 -12 -42 -18 -32 -9 -38 -9 -38 3 0 8 10 19 23 24 12 5 17 9 10 9
-25 2 -43 -12 -43 -34 0 -13 5 -27 10 -30 6 -3 10 -15 10 -26 0 -24 20 -26 21
-1 1 9 1 20 0 24 -1 9 63 33 100 36 9 1 28 13 42 26 14 13 39 27 56 31 29 6
29 6 26 -32 -1 -21 0 -29 2 -18 3 11 9 25 15 32 5 7 8 16 5 20 -3 4 16 7 41 6
33 -2 41 0 27 6 -11 4 -26 6 -32 4 -7 -3 -13 2 -13 11 0 9 5 16 10 16 18 0 60
-32 54 -41 -3 -5 2 -16 11 -25 14 -15 15 -14 11 10 -5 28 3 33 22 14 9 -9 15
-9 23 -1 8 8 3 13 -20 18 -17 4 -31 11 -31 16 0 5 -7 9 -15 9 -8 0 -15 5 -15
10 0 6 -9 10 -19 10 -11 0 -23 -4 -26 -10z"/>
<path d="M2620 4530 c0 -5 5 -10 10 -10 6 0 10 5 10 10 0 6 -4 10 -10 10 -5 0
-10 -4 -10 -10z"/>
<path d="M2368 4513 c7 -3 16 -2 19 1 4 3 -2 6 -13 5 -11 0 -14 -3 -6 -6z"/>
<path d="M2658 4513 c7 -3 16 -2 19 1 4 3 -2 6 -13 5 -11 0 -14 -3 -6 -6z"/>
<path d="M2308 4493 c-10 -2 -18 -9 -18 -14 0 -6 7 -6 18 -1 9 5 24 12 32 15
13 5 13 5 0 5 -8 0 -23 -2 -32 -5z"/>
<path d="M2258 4463 c7 -3 16 -2 19 1 4 3 -2 6 -13 5 -11 0 -14 -3 -6 -6z"/>
<path d="M2653 4435 c-17 -35 -17 -35 -85 -35 -54 0 -68 -3 -68 -15 0 -11 -11
-15 -40 -15 -29 0 -40 -4 -40 -15 0 -12 -14 -15 -65 -15 -49 0 -67 -4 -71 -15
-4 -8 -17 -15 -30 -15 -13 0 -24 -4 -24 -10 0 -5 -9 -10 -19 -10 -11 0 -26 -7
-35 -15 -8 -8 -31 -15 -50 -15 -25 0 -36 -4 -36 -15 0 -9 -9 -15 -25 -15 -16
0 -25 -6 -25 -15 0 -8 -7 -15 -15 -15 -12 0 -15 -18 -15 -100 0 -60 -4 -100
-10 -100 -15 0 -12 -60 4 -76 17 -16 156 -20 156 -4 0 6 14 10 30 10 18 0 33
6 36 15 4 8 17 15 30 15 21 0 24 -4 24 -40 0 -34 -3 -40 -20 -40 -11 0 -23 -7
-26 -15 -4 -11 -21 -15 -55 -15 -35 0 -51 -4 -55 -15 -4 -8 -12 -15 -20 -15
-8 0 -14 -5 -14 -11 0 -7 -11 -22 -25 -35 -14 -13 -25 -32 -25 -44 0 -14 -6
-20 -24 -20 -13 0 -26 -7 -30 -15 -3 -8 -12 -15 -21 -15 -9 0 -26 -11 -39 -25
-13 -14 -28 -25 -35 -25 -6 0 -11 -4 -11 -10 0 -5 -7 -10 -15 -10 -8 0 -15 -6
-15 -14 0 -8 -11 -23 -25 -34 -14 -11 -25 -25 -25 -31 0 -6 -7 -11 -15 -11 -8
0 -15 -7 -15 -15 0 -8 -5 -15 -11 -15 -13 0 -39 -25 -39 -38 0 -6 -7 -12 -15
-16 -11 -4 -15 -20 -15 -54 0 -32 5 -54 15 -62 8 -7 15 -17 15 -22 0 -5 13
-23 29 -39 24 -24 38 -29 75 -29 25 0 46 5 46 10 0 6 14 10 30 10 20 0 30 5
30 15 0 8 7 15 14 15 11 0 16 14 18 50 5 82 23 63 26 -27 2 -46 7 -83 12 -83
6 0 10 -7 10 -15 0 -8 7 -15 15 -15 8 0 15 -4 15 -10 0 -5 7 -10 15 -10 8 0
15 -7 15 -15 0 -9 9 -15 25 -15 24 0 25 -3 25 -55 l0 -55 -55 0 c-42 0 -55 3
-55 15 0 8 -9 15 -20 15 -20 0 -90 63 -90 80 0 6 -7 10 -15 10 -8 0 -15 5 -15
10 0 6 -11 10 -25 10 -24 0 -25 -2 -25 -70 0 -40 4 -70 10 -70 6 0 10 -11 10
-24 0 -15 7 -26 20 -29 12 -3 20 -14 20 -26 0 -12 6 -21 15 -21 8 0 15 -4 15
-10 0 -5 11 -10 25 -10 18 0 25 -5 25 -20 0 -18 7 -20 79 -20 61 0 80 3 85 15
3 8 10 15 16 15 5 0 10 -7 10 -15 0 -8 5 -15 10 -15 6 0 10 -7 10 -15 0 -8 5
-15 10 -15 10 0 50 -36 50 -45 0 -13 -103 -4 -116 10 -11 10 -36 15 -80 15
-60 0 -65 -2 -74 -25 -5 -14 -14 -25 -20 -25 -5 0 -10 -14 -10 -30 0 -18 -6
-33 -15 -36 -8 -4 -15 -17 -15 -30 0 -13 -4 -24 -10 -24 -6 0 -10 -34 -10 -81
0 -72 3 -83 23 -100 29 -24 137 -28 137 -4 0 8 7 15 15 15 8 0 15 9 15 20 0
11 5 20 10 20 6 0 10 9 10 20 0 18 7 20 64 20 48 0 65 -4 70 -15 4 -12 23 -15
81 -15 58 0 77 3 81 15 4 8 12 15 20 15 8 0 14 7 14 15 0 8 5 15 10 15 6 0 10
7 10 15 0 8 9 15 20 15 13 0 20 -7 20 -20 0 -11 5 -20 10 -20 6 0 10 -9 10
-20 0 -11 5 -20 10 -20 6 0 10 -11 10 -24 0 -14 5 -28 10 -31 6 -3 10 -15 10
-26 0 -10 5 -19 10 -19 6 0 10 -8 10 -19 0 -10 11 -27 25 -37 14 -10 25 -29
25 -41 0 -14 6 -23 15 -23 8 0 15 -9 15 -20 0 -11 7 -20 15 -20 8 0 15 -4 15
-10 0 -6 31 -10 73 -10 71 1 107 14 107 39 0 6 7 11 15 11 8 0 15 5 15 10 0 6
7 10 15 10 8 0 15 4 15 9 0 5 23 33 50 61 45 46 50 56 50 96 0 24 -4 44 -10
44 -5 0 -10 7 -10 15 0 8 -7 15 -15 15 -8 0 -15 7 -15 15 0 17 -15 18 -84 9
-66 -9 -57 -24 15 -24 47 0 65 -4 75 -17 24 -32 17 -43 -30 -43 -44 0 -48 -3
-150 -105 -58 -58 -108 -105 -111 -105 -3 0 -5 10 -5 21 0 13 21 41 50 69 28
26 50 53 50 59 0 6 7 11 15 11 8 0 15 5 15 10 0 6 -7 10 -15 10 -8 0 -15 7
-15 15 0 8 -4 15 -10 15 -5 0 -10 7 -10 15 0 11 11 15 40 15 40 0 54 15 25 26
-8 4 -15 14 -15 25 0 10 -11 30 -25 45 -16 18 -25 39 -25 60 0 19 -4 34 -10
34 -5 0 -10 11 -10 25 0 15 -6 25 -15 25 -8 0 -19 9 -25 19 -13 25 -13 71 0
71 6 0 18 18 27 40 10 22 21 40 25 40 5 0 8 9 8 20 0 11 7 20 15 20 12 0 15
18 15 100 0 60 4 100 10 100 6 0 10 7 10 15 0 8 7 15 15 15 9 0 15 9 15 25 0
20 5 25 25 25 14 0 25 -4 25 -10 0 -5 7 -10 15 -10 8 0 15 -7 15 -15 0 -9 9
-15 25 -15 14 0 28 -7 31 -15 5 -12 24 -15 85 -15 64 0 79 3 79 15 0 8 7 15
15 15 8 0 15 7 15 15 0 8 5 15 10 15 19 0 50 40 50 65 0 14 5 25 10 25 6 0 10
9 10 20 0 11 5 20 10 20 6 0 10 27 10 60 0 33 -4 60 -10 60 -5 0 -10 9 -10 20
0 11 -7 20 -15 20 -8 0 -15 5 -15 10 0 13 -32 45 -59 59 -37 20 -111 5 -111
-23 0 -11 -27 -36 -39 -36 -6 0 -11 -7 -11 -15 0 -26 -37 -16 -75 20 -36 33
-39 55 -9 55 18 0 114 97 114 116 0 8 5 14 10 14 6 0 10 43 10 110 0 91 3 110
15 110 10 0 17 14 21 40 4 22 10 40 15 40 5 0 9 36 9 80 0 64 -3 80 -15 80 -8
0 -15 4 -15 10 0 5 -20 30 -44 55 -36 37 -51 45 -80 45 -25 0 -36 4 -36 15 0
10 -10 15 -30 15 -20 0 -30 5 -30 15 0 8 7 15 15 15 8 0 15 7 15 15 0 19 -46
20 -57 2 -4 -8 -16 -17 -26 -20 -24 -9 -12 -27 19 -27 20 0 64 -30 64 -44 0
-2 -23 -6 -50 -8 -57 -6 -71 -14 -50 -29 18 -12 93 -4 98 10 2 6 8 11 14 11
13 0 38 -26 38 -39 0 -6 7 -11 15 -11 8 0 15 -8 15 -17 0 -10 3 -28 6 -40 6
-20 3 -23 -25 -23 -21 0 -31 -5 -31 -15 0 -8 -7 -15 -15 -15 -8 0 -15 -7 -15
-15 0 -8 -4 -15 -10 -15 -5 0 -10 -11 -10 -25 0 -14 5 -25 10 -25 6 0 10 -28
10 -64 0 -36 5 -68 10 -71 6 -4 24 -4 40 0 27 6 30 10 30 46 0 28 4 39 15 39
11 0 15 -13 15 -54 0 -30 5 -58 10 -61 6 -3 10 -35 10 -71 0 -36 -4 -64 -10
-64 -5 0 -10 -7 -10 -15 0 -8 -7 -15 -15 -15 -8 0 -15 -4 -15 -10 0 -5 -7 -10
-15 -10 -8 0 -15 5 -15 11 0 5 -4 7 -10 4 -5 -3 -10 1 -10 10 0 16 57 75 72
75 15 0 8 51 -9 69 -15 15 -29 17 -80 13 -35 -2 -63 -8 -63 -13 0 -5 -7 -9
-15 -9 -10 0 -15 -10 -15 -30 0 -16 5 -30 11 -30 14 0 39 -25 39 -39 0 -6 7
-11 15 -11 24 0 18 -14 -14 -33 -16 -10 -50 -17 -76 -17 -38 0 -52 5 -71 25
-13 14 -28 25 -34 25 -5 0 -10 7 -10 15 0 9 -9 15 -25 15 -14 0 -25 -4 -25 -9
0 -14 65 -81 79 -81 6 0 11 -4 11 -10 0 -6 33 -10 80 -10 47 0 80 4 80 10 0
15 19 12 36 -4 19 -20 18 -23 -11 -30 -14 -4 -25 -11 -25 -16 0 -6 -39 -10
-95 -10 -77 0 -96 3 -103 17 -11 18 -24 22 -89 30 -28 3 -43 10 -43 19 0 8 -9
14 -20 14 -26 0 -58 32 -66 67 -4 16 -10 30 -14 33 -20 15 -49 99 -45 130 2
19 7 60 9 90 3 30 10 56 15 58 6 2 11 10 11 17 0 7 5 15 10 17 6 2 13 27 17
56 l6 53 -39 -7 c-40 -7 -73 -37 -74 -66 0 -10 -7 -18 -15 -18 -8 0 -15 -7
-15 -15 0 -8 -4 -15 -9 -15 -5 0 -13 -9 -16 -20 -3 -11 -17 -23 -31 -26 -13
-3 -24 -12 -24 -20 0 -9 -11 -14 -30 -14 -16 0 -30 -4 -30 -10 0 -5 -11 -10
-24 -10 -13 0 -26 -4 -28 -9 -3 -10 -21 -14 -55 -12 -27 1 -29 13 -8 35 17 16
20 81 5 91 -5 3 -10 22 -10 41 0 19 5 34 10 34 6 0 10 6 10 13 0 8 25 22 55
32 30 11 55 23 55 27 0 4 11 8 24 8 14 0 31 7 40 15 8 8 22 15 31 15 8 0 18 7
21 15 5 11 24 15 80 15 41 0 74 4 74 9 0 5 10 13 23 17 12 4 25 11 29 17 3 6
35 13 70 15 50 4 68 10 85 28 29 31 33 30 33 -6 0 -31 16 -41 26 -16 3 8 16
17 30 20 13 4 24 11 24 16 0 6 25 10 55 10 30 0 55 -4 55 -10 0 -5 7 -10 15
-10 10 0 15 10 15 30 l0 30 -70 0 c-58 0 -73 -4 -87 -20 -19 -22 -33 -26 -33
-9 0 12 -29 38 -43 39 -4 0 -15 -16 -24 -35z m343 -169 c8 -8 14 -19 14 -25 0
-6 6 -11 14 -11 8 0 17 -11 20 -25 4 -14 11 -25 16 -25 6 0 10 -21 10 -46 0
-50 -22 -59 -28 -11 -2 15 -8 27 -13 27 -5 0 -9 7 -9 15 0 8 -7 15 -15 15 -9
0 -15 9 -15 25 0 16 -6 25 -15 25 -8 0 -15 9 -15 21 0 11 -4 17 -10 14 -5 -3
-10 -1 -10 4 0 16 39 13 56 -3z m-6 -187 c0 -38 -2 -41 -22 -35 -13 3 -31 6
-40 6 -10 0 -18 5 -18 10 0 6 7 10 15 10 8 0 15 7 15 16 0 8 5 12 10 9 6 -3
10 1 10 9 0 9 7 16 15 16 11 0 15 -11 15 -41z m-55 -89 c0 -13 -6 -25 -12 -27
-9 -3 -13 6 -13 27 0 21 4 30 13 28 6 -3 12 -15 12 -28z m-5 -160 c0 -5 -9
-10 -19 -10 -11 0 -23 5 -26 10 -4 6 5 10 19 10 14 0 26 -4 26 -10z m-620 -99
c0 -5 9 -13 21 -16 24 -8 59 -40 59 -55 0 -5 6 -10 13 -10 23 0 67 -25 67 -37
0 -7 7 -13 15 -13 8 0 15 -7 15 -15 0 -8 5 -15 10 -15 6 0 10 -4 10 -10 0 -5
-9 -10 -20 -10 -11 0 -20 7 -20 15 0 8 -7 15 -15 15 -8 0 -15 5 -15 10 0 6 -7
10 -15 10 -8 0 -15 6 -15 14 0 8 -11 17 -25 20 -14 4 -25 11 -25 16 0 6 -7 10
-15 10 -8 0 -15 7 -15 15 0 8 -9 15 -20 15 -21 0 -62 34 -52 44 9 10 42 7 42
-3z m-110 -66 c0 -9 9 -15 25 -15 14 0 25 -4 25 -10 0 -5 7 -10 15 -10 8 0 15
-7 15 -15 0 -8 7 -15 15 -15 23 0 19 -62 -5 -83 -22 -18 -60 -23 -60 -7 0 5
-11 12 -25 16 -14 3 -25 10 -25 15 0 5 -11 9 -25 9 -14 0 -28 7 -31 15 -4 8
-15 15 -26 15 -12 0 -26 7 -33 17 -14 19 -37 9 -28 -13 8 -23 -62 -84 -98 -84
-16 0 -29 6 -30 13 -1 6 -3 29 -4 50 -3 28 0 37 11 37 18 0 44 24 44 39 0 6
11 11 25 11 16 0 25 6 25 15 0 12 17 15 95 15 78 0 95 -3 95 -15z m950 -90 c0
-8 7 -15 15 -15 8 0 15 -7 15 -15 0 -8 7 -15 15 -15 8 0 15 -5 15 -11 0 -7 7
-17 15 -23 11 -8 13 -21 9 -48 -6 -32 -11 -38 -30 -38 -13 0 -24 -5 -24 -11 0
-6 -10 -9 -22 -7 -28 4 -36 35 -12 52 13 10 14 15 4 21 -8 5 -18 2 -26 -9 -12
-17 -14 -16 -33 3 -18 18 -19 22 -6 27 8 4 15 12 15 20 0 8 7 14 15 14 8 0 15
7 15 15 0 8 -7 15 -15 15 -8 0 -15 -7 -15 -15 0 -9 -9 -15 -25 -15 -19 0 -25
5 -25 21 0 29 27 48 68 49 22 0 32 -5 32 -15z m-604 -52 c-10 -10 -19 5 -10
18 6 11 8 11 12 0 2 -7 1 -15 -2 -18z m48 -19 c18 -18 21 -34 6 -34 -5 0 -10
-13 -10 -30 0 -29 1 -30 50 -30 l50 0 0 -35 c0 -24 -5 -35 -15 -35 -12 0 -15
-13 -15 -60 l0 -60 30 0 c20 0 30 5 30 15 0 8 -7 15 -15 15 -11 0 -15 12 -15
45 0 34 4 45 16 45 11 0 15 8 14 28 -6 78 10 110 29 59 15 -40 25 -181 12
-173 -6 4 -11 16 -11 27 0 10 -4 19 -10 19 -12 0 -13 -47 -1 -54 4 -3 7 -16 6
-28 -1 -13 -3 -29 -4 -35 -1 -10 -29 -13 -106 -13 -87 0 -105 3 -105 15 0 11
-11 15 -40 15 -27 0 -43 -5 -46 -15 -4 -8 -10 -15 -16 -15 -13 0 -38 -26 -38
-39 0 -6 -5 -11 -11 -11 -7 0 -17 -7 -24 -17 -16 -21 -45 -10 -45 17 0 11 -4
20 -10 20 -5 0 -10 11 -10 25 0 14 5 25 10 25 6 0 10 7 10 15 0 8 8 15 18 15
10 0 25 11 32 25 7 14 17 25 21 25 4 0 10 14 14 30 4 17 11 30 16 30 5 0 9 6
9 14 0 8 6 21 14 29 8 8 16 32 18 53 2 32 7 40 26 42 15 2 22 -2 22 -12 0 -9
5 -16 10 -16 6 0 10 -11 10 -25 0 -14 -4 -25 -10 -25 -5 0 -10 -11 -10 -25 0
-16 -6 -25 -15 -25 -10 0 -15 -11 -15 -35 0 -24 5 -35 15 -35 8 0 15 -4 15
-10 0 -5 7 -10 15 -10 8 0 15 5 15 10 0 6 -7 13 -15 16 -17 7 -20 49 -5 59 6
3 10 15 10 26 0 11 7 22 15 25 9 4 15 19 15 41 0 26 5 36 20 40 23 6 27 33 5
33 -8 0 -15 5 -15 10 0 15 16 12 34 -6z m426 1 c0 -8 5 -15 10 -15 6 0 10 -11
10 -25 0 -14 -4 -25 -10 -25 -5 0 -10 7 -10 15 0 8 -7 15 -15 15 -9 0 -15 9
-15 25 0 16 6 25 15 25 8 0 15 -7 15 -15z m-90 -25 c17 -17 30 -35 30 -40 0
-6 5 -10 11 -10 7 0 0 -11 -15 -25 -14 -13 -26 -29 -26 -35 0 -5 -4 -10 -10
-10 -5 0 -10 7 -10 15 0 8 -4 15 -10 15 -6 0 -10 27 -10 60 0 33 2 60 5 60 3
0 19 -14 35 -30z m-1110 -35 c0 -16 6 -25 15 -25 8 0 15 -7 15 -15 0 -8 11
-17 25 -21 14 -3 25 -10 25 -15 0 -5 7 -9 15 -9 10 0 15 -10 15 -30 0 -16 -4
-30 -10 -30 -5 0 -10 7 -10 15 0 10 -10 15 -30 15 -19 0 -30 -5 -30 -14 0 -8
-7 -17 -16 -20 -8 -3 -12 -11 -8 -17 4 -7 -1 -10 -12 -7 -12 2 -20 13 -22 31
-3 28 -17 36 -24 15 -7 -21 -28 2 -28 31 0 15 -5 32 -11 38 -8 8 -4 19 15 40
14 15 26 31 26 35 0 5 11 8 25 8 20 0 25 -5 25 -25z m80 15 c0 -5 -6 -10 -14
-10 -8 0 -18 5 -21 10 -3 6 3 10 14 10 12 0 21 -4 21 -10z m1114 -96 c7 -18 0
-34 -14 -34 -6 0 -9 11 -8 25 3 28 13 33 22 9z m-484 -209 c0 -12 17 -15 95
-15 l95 0 0 -30 c0 -16 5 -30 10 -30 6 0 10 -9 10 -20 0 -13 -7 -20 -20 -20
-11 0 -23 -7 -26 -15 -8 -21 -164 -22 -164 -1 0 11 -10 13 -40 9 -33 -5 -40
-3 -40 11 0 10 -9 16 -25 16 -14 0 -25 3 -25 6 0 4 11 17 25 30 14 13 25 34
25 49 0 23 4 25 40 25 29 0 40 -4 40 -15z m-652 -33 c9 -10 22 -27 28 -38 6
-10 21 -20 33 -22 11 -2 21 -10 21 -18 0 -8 5 -14 11 -14 6 0 17 -7 25 -15 9
-8 33 -15 55 -15 21 0 39 -4 39 -10 0 -5 -6 -10 -14 -10 -8 0 -16 -7 -20 -15
-4 -10 -20 -15 -50 -15 -30 0 -46 5 -50 15 -3 8 -17 15 -31 15 -16 0 -25 6
-25 15 0 8 -4 15 -10 15 -5 0 -10 7 -10 15 0 9 -7 18 -15 21 -10 4 -15 20 -15
50 0 49 3 52 28 26z m672 -242 c0 -5 11 -12 24 -16 31 -8 99 -82 92 -101 -4
-8 -6 -19 -6 -24 0 -13 -93 -4 -98 10 -2 6 -10 11 -18 11 -8 0 -14 7 -14 15 0
8 -9 15 -20 15 -12 0 -31 11 -44 25 -17 18 -34 25 -60 25 -41 0 -43 3 -18 29
14 16 32 19 90 20 41 1 72 -3 72 -9z m-540 -99 c0 -11 -4 -21 -10 -23 -5 -1
-11 -14 -13 -28 -5 -32 -21 -29 -25 5 -2 17 1 25 12 25 9 0 16 9 16 20 0 11 5
20 10 20 6 0 10 -9 10 -19z m-50 -106 c0 -13 -7 -28 -16 -33 -11 -6 -14 -20
-12 -48 3 -34 6 -39 26 -36 12 2 29 -4 38 -12 8 -9 22 -16 30 -16 8 0 14 -9
14 -20 0 -23 -51 -36 -99 -25 l-31 7 0 79 c0 62 3 79 14 79 10 0 13 8 10 25
-3 18 0 25 11 25 9 0 15 -9 15 -25z m91 -56 c25 -13 14 -32 -14 -23 -28 8 -30
11 -22 23 8 14 11 14 36 0z m-17 -44 c8 -8 19 -15 25 -15 6 0 11 -5 11 -11 0
-7 -10 -9 -26 -5 -25 7 -54 28 -54 40 0 12 29 6 44 -9z m56 5 c0 -5 -4 -10
-10 -10 -5 0 -10 5 -10 10 0 6 5 10 10 10 6 0 10 -4 10 -10z m680 0 c0 -5 -7
-10 -15 -10 -8 0 -15 -4 -15 -10 0 -5 -11 -12 -25 -16 -14 -3 -25 -10 -25 -15
0 -5 -7 -9 -15 -9 -8 0 -15 -7 -15 -15 0 -8 -9 -15 -20 -15 -13 0 -20 7 -20
18 1 26 25 52 49 52 12 0 24 7 27 15 7 17 74 21 74 5z m-20 -85 c0 -8 -7 -15
-15 -15 -8 0 -15 7 -15 15 0 8 7 15 15 15 8 0 15 -7 15 -15z"/>
<path d="M3160 3480 c0 -5 5 -10 10 -10 6 0 10 5 10 10 0 6 -4 10 -10 10 -5 0
-10 -4 -10 -10z"/>
<path d="M2560 3355 c0 -16 -6 -25 -15 -25 -10 0 -15 -10 -15 -31 0 -36 23
-36 28 0 2 12 10 25 18 28 19 7 18 53 -1 53 -9 0 -15 -9 -15 -25z"/>
<path d="M2521 4444 c0 -11 3 -14 6 -6 3 7 2 16 -1 19 -3 4 -6 -2 -5 -13z"/>
<path d="M1740 4295 c0 -19 5 -35 10 -35 6 0 10 -60 10 -160 l0 -160 -40 0
c-27 0 -48 -7 -62 -20 -45 -42 -48 -32 -48 154 0 96 -3 177 -7 179 -5 3 -7
-103 -5 -235 2 -170 0 -238 -8 -233 -7 5 -11 76 -10 218 1 255 2 245 -8 230
-4 -6 -21 -13 -37 -16 l-30 -4 33 -2 c41 -1 44 -32 5 -50 -16 -8 -36 -17 -45
-22 -15 -8 -18 -5 -18 20 0 16 6 32 13 34 7 3 5 6 -5 6 -14 1 -18 -7 -18 -39
0 -44 9 -48 54 -25 15 8 32 15 37 15 12 0 12 -287 -1 -295 -5 -3 -7 -12 -3
-20 3 -8 0 -15 -5 -15 -6 0 -13 9 -17 19 -3 11 -18 21 -35 23 -24 4 -37 -3
-69 -36 -24 -25 -41 -53 -43 -71 l-4 -30 -12 28 c-11 25 -16 27 -67 27 -30 0
-55 2 -55 5 0 3 14 20 31 38 58 61 99 158 99 240 l0 47 -49 0 c-28 0 -53 -4
-56 -10 -3 -5 -15 -10 -26 -10 -10 0 -19 -4 -19 -10 0 -5 -5 -10 -10 -10 -27
0 -147 -125 -160 -166 -12 -36 -32 -41 -38 -10 -7 34 -44 66 -76 66 -39 0 -51
-9 -61 -40 -4 -14 -16 -37 -26 -52 -11 -14 -19 -40 -19 -56 0 -17 -4 -34 -10
-37 -6 -3 -10 -40 -10 -81 0 -74 -7 -87 -30 -59 -15 18 -61 20 -78 3 -7 -7
-12 -27 -12 -44 0 -18 -4 -36 -10 -39 -12 -8 -13 -187 -1 -201 13 -14 23 -64
12 -64 -5 0 -13 5 -16 10 -7 11 -54 13 -79 4 -12 -4 -16 -20 -16 -55 l0 -49
-40 0 c-23 0 -40 5 -40 11 0 15 39 49 57 49 7 0 13 5 13 10 0 14 -73 13 -104
-2 -14 -6 -28 -19 -31 -30 -4 -10 -11 -18 -16 -18 -5 0 -9 -5 -9 -11 0 -6 -7
-17 -15 -25 -13 -14 -16 -14 -21 -1 -5 15 -38 31 -79 40 -13 3 -9 5 11 6 18 1
43 -8 58 -20 34 -27 34 -11 -1 18 -34 30 -95 31 -125 3 -12 -11 -16 -20 -10
-20 19 0 92 -34 92 -42 0 -5 -10 -8 -23 -8 -27 0 -87 -58 -87 -83 0 -21 1 -21
49 4 51 26 72 16 34 -16 -15 -14 -24 -28 -20 -32 5 -4 12 -1 16 6 5 7 13 12
18 10 6 -2 -1 -14 -14 -27 -17 -17 -23 -19 -23 -7 0 23 -17 18 -24 -7 -8 -30
-8 -83 0 -91 6 -6 40 32 60 67 18 34 34 31 34 -7 0 -36 25 -97 41 -97 5 0 9
13 9 28 0 16 8 39 19 51 l19 21 11 -45 c6 -25 14 -72 18 -105 6 -58 5 -59 -21
-66 -14 -3 -26 -10 -26 -15 0 -5 -7 -9 -15 -9 -19 0 -19 -16 0 -24 12 -4 15
-24 15 -87 0 -72 -3 -83 -22 -99 -21 -17 -25 -17 -40 -3 -20 18 -25 4 -6 -15
9 -9 7 -12 -10 -12 -23 0 -31 -25 -11 -32 17 -6 2 -44 -27 -73 -33 -33 -33
-87 0 -104 13 -7 30 -24 37 -37 7 -13 16 -24 21 -24 4 0 8 -11 8 -25 0 -20 6
-27 30 -31 17 -4 30 -13 30 -20 0 -8 5 -14 10 -14 6 0 10 -6 10 -14 0 -8 19
-23 42 -35 32 -15 37 -21 21 -21 -12 0 -25 -5 -29 -12 -4 -7 -3 -8 4 -4 7 4
12 2 12 -3 0 -6 9 -11 19 -11 20 0 31 -17 24 -38 -3 -6 -22 -15 -44 -18 -21
-4 -39 -10 -39 -14 0 -8 161 -21 215 -17 28 2 30 -1 33 -35 l3 -38 -70 0 c-82
0 -94 -15 -21 -25 87 -12 58 -35 -43 -35 -71 0 -109 -8 -101 -21 3 -5 57 -9
120 -9 l114 0 0 -30 c0 -29 12 -44 65 -84 18 -14 14 -15 -53 -16 l-73 0 -60
-61 c-53 -54 -63 -69 -61 -90 1 -4 -39 -9 -88 -11 -126 -6 -136 -23 -18 -32
53 -4 96 -12 100 -19 5 -7 7 -28 6 -47 -3 -32 -6 -35 -37 -38 -19 -2 -40 -10
-48 -18 -8 -8 -23 -14 -33 -14 -10 0 -22 -4 -25 -10 -4 -6 20 -10 64 -10 38 0
73 -5 76 -10 4 -6 4 -23 0 -38 -6 -27 -7 -28 -87 -30 -77 -1 -98 -6 -86 -17 3
-3 42 -8 86 -12 l82 -6 6 -33 c11 -58 3 -64 -81 -64 -41 0 -75 -4 -75 -9 0
-13 38 -21 103 -21 53 0 57 -2 57 -23 0 -14 21 -45 54 -80 l53 -57 183 0 183
0 37 39 c21 22 40 46 42 53 3 8 20 -3 46 -32 23 -25 42 -48 42 -52 0 -5 56 -8
124 -8 113 0 127 -2 172 -26 129 -68 149 -79 154 -84 3 -3 37 -22 75 -41 39
-19 93 -48 120 -64 28 -16 77 -43 110 -60 69 -37 145 -79 195 -109 19 -12 62
-35 95 -51 33 -17 62 -32 65 -35 3 -3 19 -12 35 -20 17 -8 32 -17 35 -20 19
-19 122 -60 151 -60 33 0 206 79 219 100 3 5 18 12 33 15 15 4 27 11 27 16 0
5 9 9 19 9 11 0 21 3 23 8 2 4 23 18 48 31 100 52 125 66 130 71 3 3 40 23 83
44 42 22 77 43 77 48 0 4 8 8 18 8 9 0 34 11 54 25 33 22 69 42 203 113 17 8
32 18 35 21 18 21 121 61 156 61 22 0 45 5 52 12 7 7 13 50 14 113 l2 100 3
-99 c3 -67 8 -103 18 -112 11 -11 80 -14 378 -14 404 0 377 -5 377 66 l0 34
59 0 c82 0 86 17 6 25 l-65 7 0 49 c0 27 4 49 9 49 12 0 -11 48 -26 54 -7 3
-57 6 -113 7 -72 1 -100 5 -100 14 0 18 57 25 198 25 67 0 122 4 122 9 0 5
-72 12 -160 16 l-160 7 0 28 0 28 129 3 c118 4 154 10 139 24 -3 3 -64 8 -137
12 l-131 6 0 29 c0 21 5 28 19 28 11 0 23 5 26 10 4 6 11 8 16 5 5 -4 9 1 9
10 0 9 -4 13 -10 10 -17 -11 -11 7 8 21 9 7 42 14 72 14 30 0 66 3 78 7 47 12
-3 23 -110 23 l-108 0 0 49 c0 44 3 50 23 53 18 2 23 10 25 41 2 21 7 35 13
31 5 -3 15 -1 22 4 7 5 42 13 80 17 37 3 67 10 67 14 0 11 -62 21 -127 21 -52
0 -53 1 -53 29 0 28 3 30 45 37 54 8 50 24 -6 24 -32 0 -39 3 -39 20 0 18 7
20 63 21 34 1 76 5 92 9 l30 7 -27 7 c-38 11 -35 24 4 28 25 2 36 10 46 31 8
16 21 31 30 33 10 3 25 10 34 15 10 5 27 9 39 9 28 0 66 44 74 87 3 18 10 33
15 33 6 0 10 45 10 104 0 80 -3 106 -15 116 -11 9 -15 35 -15 101 0 51 -4 89
-10 89 -5 0 -39 -13 -75 -30 -36 -17 -72 -30 -79 -30 -8 0 -16 -4 -18 -9 -1
-5 -20 6 -41 26 -35 32 -40 46 -16 49 5 1 15 2 22 3 8 0 24 10 37 21 31 27 70
25 114 -5 l36 -24 0 59 c0 47 3 60 15 60 9 0 15 9 15 24 0 19 -9 29 -40 42
l-40 18 0 122 c0 71 4 125 10 129 13 8 13 45 0 45 -5 0 -10 33 -12 73 l-3 72
-35 11 -35 12 -1 73 c-3 238 -3 239 -21 246 -9 4 -19 1 -21 -5 -2 -7 -14 -12
-27 -12 -13 0 -27 -4 -30 -10 -3 -5 -26 -10 -51 -10 -37 0 -44 3 -44 19 0 11
-4 23 -10 26 -5 3 -10 21 -10 39 0 17 -5 37 -12 44 -17 17 -63 15 -78 -3 -23
-28 -30 -15 -30 59 0 41 -4 78 -10 81 -5 3 -10 20 -10 37 0 16 -8 42 -19 56
-10 15 -23 41 -28 57 -8 26 -15 30 -50 33 -35 3 -44 -1 -60 -25 -11 -15 -23
-36 -26 -45 -10 -28 -22 -21 -36 20 -8 21 -37 59 -67 87 -74 69 -82 75 -94 75
-5 0 -10 5 -10 10 0 6 -9 10 -20 10 -11 0 -20 5 -20 10 0 6 -25 10 -55 10
l-55 0 0 -47 c0 -53 20 -131 37 -141 5 -4 13 -18 16 -32 3 -14 22 -42 42 -63
19 -20 35 -39 35 -42 0 -2 -26 -5 -57 -7 -49 -3 -60 -7 -68 -25 -11 -26 -25
-30 -25 -8 0 8 -11 17 -25 21 -14 3 -25 10 -25 15 0 5 -7 9 -15 9 -8 0 -15 7
-15 15 0 21 49 19 73 -2 19 -17 20 -17 8 5 -9 17 -20 22 -51 22 -29 0 -43 6
-54 22 -9 12 -16 18 -16 12 0 -6 7 -19 15 -30 8 -10 15 -22 15 -26 0 -11 -56
-4 -58 7 -1 6 -3 22 -6 38 -3 20 0 27 12 27 15 1 15 2 0 11 -16 9 -18 26 -18
134 l0 125 25 0 c14 0 25 -4 25 -10 0 -5 14 -10 30 -10 29 0 30 1 30 50 0 47
-2 50 -25 50 -14 0 -43 8 -63 18 l-37 18 3 -244 c2 -166 -1 -242 -8 -237 -6 4
-11 92 -12 238 -2 212 -3 217 -5 63 -2 -96 -8 -175 -14 -182 -7 -8 -7 -14 1
-19 12 -7 14 -51 2 -58 -7 -5 -52 27 -52 37 0 3 -9 15 -20 26 -27 27 -25 38 5
38 14 0 28 -4 31 -9 3 -5 10 -9 17 -9 6 0 2 7 -9 15 -10 8 -34 15 -51 15 l-33
0 0 154 c0 93 4 157 10 161 6 3 10 22 10 41 l0 34 -147 -2 -148 -2 143 -3 142
-4 0 -24 c0 -24 -1 -24 -112 -27 -105 -3 -111 -4 -83 -17 32 -14 115 -18 153
-6 l22 7 0 -205 c0 -150 -3 -208 -12 -213 -19 -12 -61 -14 -74 -4 -6 6 -32 13
-58 16 -38 6 -46 4 -46 -10 0 -12 10 -16 45 -16 25 0 45 -4 45 -8 0 -5 44 -12
98 -15 58 -3 110 -12 127 -21 17 -9 42 -16 58 -16 15 0 27 -4 27 -10 0 -5 12
-10 28 -10 15 0 40 -7 56 -15 15 -8 34 -15 41 -15 7 0 15 -8 19 -17 3 -10 9
-23 12 -30 4 -9 -14 -11 -68 -10 -70 2 -73 1 -76 -22 -2 -13 1 -28 7 -34 18
-18 14 -67 -6 -67 -15 0 -14 -2 3 -15 23 -17 15 -19 -23 -4 -22 8 -24 12 -13
19 11 7 8 10 -14 10 -25 0 -27 2 -16 16 11 13 10 16 -7 20 -12 3 -24 16 -27
27 -6 21 -6 21 -30 -6 -17 -20 -38 -30 -65 -34 -23 -3 -38 -10 -35 -15 4 -6
22 -8 40 -6 39 5 46 -9 9 -18 -14 -3 -25 -10 -25 -15 0 -14 34 -10 58 7 22 15
22 14 22 -25 0 -39 -1 -40 -37 -43 -40 -3 -48 -21 -13 -26 19 -3 21 -9 18 -85
l-3 -82 -31 3 c-30 3 -104 -20 -104 -33 0 -10 135 7 141 18 4 5 16 7 28 4 12
-3 24 -1 27 4 8 13 39 11 71 -5 15 -8 49 -20 76 -27 46 -11 65 -37 30 -41 -10
0 -23 -2 -30 -2 -6 -1 -15 -5 -19 -9 -4 -4 -16 -7 -26 -7 -10 0 -26 -4 -36 -9
-9 -6 -34 -13 -54 -16 -21 -3 -38 -11 -38 -17 0 -11 -51 -2 -60 11 -3 5 -21
11 -41 15 -21 4 -51 14 -68 22 -23 12 -35 13 -45 5 -7 -6 -44 -12 -82 -14 -69
-2 -114 -24 -114 -53 0 -6 -7 -17 -15 -24 -12 -10 -15 -10 -15 4 0 9 -4 16
-10 16 -5 0 -10 -7 -10 -15 0 -9 -6 -12 -15 -9 -8 4 -15 1 -15 -5 0 -7 -9 -9
-25 -5 -15 4 -25 2 -25 -5 0 -6 5 -11 11 -11 6 0 9 -6 6 -13 -4 -10 2 -13 19
-9 14 2 24 0 24 -7 0 -6 -4 -11 -10 -11 -5 0 -10 -6 -10 -13 0 -7 -9 -23 -20
-35 -11 -12 -20 -30 -20 -42 0 -11 -7 -20 -15 -20 -8 0 -20 -10 -26 -22 -7
-13 -17 -28 -23 -35 -34 -39 -35 -41 -21 -47 8 -3 15 -14 15 -25 0 -11 5 -23
10 -26 6 -3 10 -19 10 -35 0 -19 9 -36 27 -50 28 -22 44 -22 51 0 3 7 0 10 -5
7 -6 -4 -18 -1 -27 6 -15 11 -13 14 19 26 29 10 44 10 79 0 38 -11 42 -15 38
-41 -4 -25 -1 -29 27 -34 17 -4 34 -11 37 -15 3 -5 17 -9 32 -10 35 0 145 -42
149 -56 6 -16 -38 -28 -47 -13 -5 8 -9 5 -13 -9 -4 -17 -10 -20 -35 -15 -17 4
-32 1 -36 -5 -5 -7 8 -11 38 -11 25 0 46 5 46 10 0 6 14 10 30 10 17 0 30 -3
30 -7 0 -5 20 -8 44 -8 24 0 42 -3 40 -7 -3 -5 9 -8 25 -8 29 0 30 -1 19 -22
-7 -13 -17 -26 -22 -29 -11 -9 78 -21 129 -18 24 1 58 -6 85 -19 l45 -21 -179
-1 c-160 0 -178 2 -160 15 18 14 17 14 -13 15 -22 0 -33 -5 -33 -14 0 -15 -24
-28 -34 -19 -11 11 -6 23 9 23 8 0 15 3 15 8 0 13 -83 62 -106 62 -8 0 -14 5
-14 10 0 6 -7 10 -16 10 -31 0 -9 -34 30 -45 40 -11 71 -45 41 -45 -8 0 -15
-4 -15 -10 0 -6 -30 -10 -70 -10 -65 0 -72 -2 -100 -31 -16 -18 -30 -38 -30
-46 0 -8 -4 -12 -10 -8 -12 7 -50 -16 -50 -32 0 -6 6 -13 13 -15 8 -3 12 -32
13 -94 1 -74 -1 -92 -17 -106 -10 -10 -23 -18 -29 -18 -5 0 -10 -11 -10 -25 0
-16 6 -25 15 -25 8 0 15 -7 15 -15 0 -8 5 -15 10 -15 6 0 10 -43 10 -110 l0
-110 -85 0 -85 0 0 75 c0 58 -4 77 -15 81 -8 4 -15 13 -15 21 0 24 -26 43 -59
43 l-31 0 0 -110 0 -111 -87 3 -88 3 -3 298 -2 297 90 0 c91 0 105 6 76 36
-11 10 -41 14 -110 14 -105 0 -100 3 -108 -68 -3 -22 -6 -20 -48 22 l-45 46
-117 0 c-65 0 -118 4 -118 9 0 5 -16 12 -35 15 -19 4 -35 11 -35 16 0 6 -9 10
-20 10 -10 0 -36 12 -57 26 -21 14 -54 33 -73 42 -19 9 -37 19 -40 22 -12 15
-82 52 -87 46 -7 -7 35 -43 62 -52 11 -4 22 -9 25 -13 7 -8 49 -32 140 -78
l75 -38 -85 -5 -85 -5 -3 -44 -3 -43 -45 46 -45 45 -97 3 -97 3 48 24 c26 13
47 29 47 37 0 8 -2 14 -4 14 -11 0 -106 -64 -106 -71 0 -5 -29 -9 -65 -9 l-66
0 -49 -52 -49 -53 -47 50 c-25 27 -41 51 -35 53 7 2 19 -2 27 -9 18 -15 104
-13 119 2 7 7 5 10 -5 9 -31 -4 -40 1 -40 21 0 15 -4 19 -16 15 -9 -3 -22 -6
-30 -6 -8 0 -14 -6 -14 -12 0 -10 -32 -14 -119 -16 -126 -4 -151 4 -106 34 23
15 28 15 73 -1 71 -25 92 -29 92 -16 0 6 -8 11 -18 11 -26 0 -72 23 -72 36 0
7 7 14 15 18 9 3 15 19 15 41 0 32 2 35 30 35 30 0 37 13 21 39 -5 8 -16 11
-30 6 -15 -5 -21 -2 -21 9 0 10 9 16 24 16 14 0 28 5 31 11 4 5 12 8 18 6 6
-2 23 2 37 10 16 8 26 9 29 2 1 -5 9 -2 16 7 15 21 71 26 105 9 68 -34 81 -37
128 -33 28 3 73 17 101 31 28 15 57 27 66 27 8 0 15 5 15 10 0 12 -48 3 -67
-13 -7 -5 -13 -6 -13 -1 0 5 -4 4 -8 -1 -9 -14 -81 -35 -119 -35 -31 0 -113
35 -113 48 0 4 19 16 43 27 35 17 43 26 48 55 4 19 7 29 8 23 1 -9 18 -13 51
-13 34 0 49 4 47 12 -2 13 1 14 66 18 38 3 39 4 9 7 -22 3 -30 8 -25 16 5 7 8
53 8 103 l0 91 -35 -9 c-57 -16 -60 -22 -60 -119 0 -55 -4 -89 -10 -89 -7 0
-10 37 -8 103 2 82 6 102 18 103 8 1 17 3 20 4 3 1 18 4 35 6 16 3 43 11 60
18 16 7 45 18 63 23 l32 11 0 -48 c0 -26 3 -62 6 -79 6 -27 3 -33 -15 -38 -11
-3 -21 -9 -21 -14 0 -5 -3 -8 -7 -7 -5 1 -23 -6 -41 -15 -38 -21 -35 -41 5
-26 25 9 26 9 19 -31 -6 -37 -4 -40 21 -46 16 -4 33 -11 40 -16 19 -15 64 -19
79 -8 7 7 18 9 23 6 5 -4 13 0 18 8 4 7 17 15 27 17 11 2 22 11 24 19 4 12 2
13 -9 4 -21 -16 -102 -36 -133 -32 -42 5 -26 22 23 26 25 1 50 7 58 13 16 14
17 101 1 117 -19 19 -76 15 -81 -5 -3 -10 -5 17 -6 60 -1 62 2 77 14 77 8 0
15 5 15 10 0 6 -7 10 -15 10 -8 0 -15 9 -15 20 0 11 5 20 10 20 6 0 10 8 10
18 0 13 -17 26 -52 42 -155 69 -160 71 -154 87 3 8 9 40 13 71 7 66 29 115 38
90 13 -34 35 -7 35 43 0 54 1 55 30 37 17 -11 22 -10 29 1 12 18 3 41 -15 41
-8 0 -14 5 -14 11 0 5 -4 8 -9 5 -5 -3 -11 1 -14 8 -5 12 -1 13 23 4 16 -5 34
-16 41 -24 6 -7 15 -11 21 -8 5 3 4 12 -3 20 -9 11 -7 14 14 14 14 0 27 6 30
14 6 15 -54 76 -75 76 -6 0 -3 6 8 14 18 14 18 16 3 31 -27 28 -84 30 -109 5
-20 -20 -23 -20 -39 -6 -10 9 -35 16 -58 16 -32 0 -42 -4 -46 -20 -3 -11 -13
-20 -22 -20 -25 0 -85 -50 -85 -71 0 -14 7 -19 29 -19 17 0 33 5 36 10 6 10
45 14 45 4 0 -3 -16 -22 -35 -42 -30 -32 -35 -44 -35 -84 0 -27 5 -48 10 -48
6 0 25 14 42 32 31 31 31 32 39 10 5 -12 15 -22 24 -22 9 0 15 -9 15 -25 0
-14 -4 -25 -10 -25 -5 0 -10 -16 -10 -35 0 -19 -4 -35 -10 -35 -5 0 -10 -17
-10 -38 0 -39 -14 -62 -37 -62 -16 0 -19 115 -3 125 16 10 12 45 -7 52 -9 3
-32 7 -52 8 -20 0 -66 2 -103 3 l-68 2 0 60 c0 33 4 60 9 60 14 0 132 123 142
148 6 14 17 22 33 22 14 0 27 4 31 9 3 6 26 13 50 17 25 3 48 10 51 15 3 5 16
9 29 9 13 0 27 5 30 10 3 6 26 10 51 10 24 0 44 5 44 10 0 6 33 10 80 10 47 0
80 4 80 10 0 6 32 10 75 10 41 0 75 -4 75 -9 0 -5 -11 -18 -25 -29 -28 -22
-33 -42 -10 -42 8 0 15 4 15 9 0 5 27 37 61 70 33 34 57 61 53 61 -4 0 -16 -8
-27 -17 -15 -15 -38 -18 -118 -18 -63 0 -102 -4 -107 -11 -4 -7 -21 -9 -39 -7
-30 5 -32 8 -38 57 -3 28 -5 119 -3 201 l3 150 45 2 c25 0 80 2 123 3 42 1 77
6 77 11 0 5 12 10 28 11 15 1 -45 5 -133 8 -156 5 -160 6 -163 27 l-3 23 228
3 228 2 -232 3 -233 2 0 -35z m1756 -74 c5 -5 18 -11 28 -13 19 -3 19 -4 2
-20 -10 -10 -13 -18 -7 -18 6 0 11 -5 11 -10 0 -7 -7 -7 -20 0 -11 6 -28 10
-37 8 -18 -3 -29 23 -19 48 6 16 27 19 42 5z m-2156 -186 c0 -19 -3 -35 -7
-35 -9 0 -33 -49 -33 -67 0 -20 -101 -133 -119 -133 -6 0 -11 -4 -11 -10 0 -5
-13 -10 -30 -10 -23 0 -30 -4 -30 -20 0 -11 -7 -20 -15 -20 -8 0 -17 -11 -21
-25 -3 -14 -10 -25 -15 -25 -5 0 -9 -9 -9 -20 0 -10 -6 -23 -14 -27 -8 -4 -18
-20 -21 -35 -11 -43 16 -35 45 12 14 22 30 40 37 40 7 0 13 5 13 11 0 17 32
38 57 39 12 0 23 5 25 10 2 7 32 10 78 8 l75 -3 -45 -49 c-48 -52 -110 -96
-135 -96 -8 0 -15 -4 -15 -10 0 -5 -11 -10 -25 -10 -14 0 -25 -4 -25 -10 0 -5
-27 -8 -61 -7 -53 2 -63 -1 -73 -18 -5 -11 -18 -32 -28 -47 -10 -15 -18 -34
-18 -43 0 -8 -4 -15 -9 -15 -6 0 -13 -20 -17 -45 -7 -48 -24 -62 -24 -20 0 14
5 25 10 25 6 0 10 11 10 24 0 14 5 28 10 31 6 3 10 17 10 30 0 13 5 25 11 27
21 7 16 52 -8 75 -13 12 -23 27 -23 33 0 5 -5 10 -11 10 -15 0 -5 190 9 199 6
3 13 23 17 44 4 20 11 37 16 37 5 0 9 7 9 15 0 25 24 17 38 -12 6 -15 12 -33
12 -40 0 -7 5 -13 11 -13 15 0 7 -153 -8 -172 -14 -17 -26 -88 -15 -88 14 0
32 23 32 42 0 10 5 18 10 18 6 0 10 9 10 19 0 11 12 33 26 48 35 38 43 59 38
116 -3 36 0 49 11 53 8 4 15 13 15 21 0 8 14 28 30 43 17 15 30 31 30 35 0 12
29 35 44 35 9 0 16 7 16 15 0 10 10 15 30 15 18 0 33 6 36 15 4 8 15 15 25 15
15 0 19 -7 19 -35z m2364 20 c3 -9 18 -15 36 -15 20 0 30 -5 30 -15 0 -8 8
-15 18 -15 9 0 26 -12 37 -27 11 -15 30 -37 43 -49 12 -13 22 -30 22 -39 0 -8
7 -15 15 -15 12 0 15 -14 15 -70 0 -59 3 -72 20 -82 11 -7 20 -18 20 -25 0 -7
5 -13 10 -13 6 0 10 -9 10 -19 0 -11 5 -23 10 -26 6 -3 10 -15 10 -26 0 -10 6
-19 13 -19 9 0 9 -2 0 -8 -6 -4 -11 -16 -10 -27 2 -17 -5 -20 -41 -22 -64 -4
-123 41 -72 54 13 3 20 14 20 29 0 24 -2 24 -93 24 -89 0 -93 1 -120 29 -41
44 -35 51 43 51 40 0 70 -4 70 -10 0 -5 10 -10 23 -10 25 -1 57 -22 57 -39 0
-6 5 -11 11 -11 14 0 31 -18 48 -53 9 -16 22 -26 30 -25 9 2 15 7 14 11 -2 4
-3 15 -3 26 0 10 -9 21 -20 24 -12 3 -20 14 -20 26 0 12 -4 21 -10 21 -5 0
-10 7 -10 15 0 8 -9 23 -20 32 -11 10 -20 23 -20 30 0 8 -12 13 -30 13 -16 0
-30 5 -30 10 0 6 -5 10 -11 10 -20 0 -117 115 -111 133 2 5 -3 17 -10 26 -42
52 -52 111 -19 111 10 0 21 -7 25 -15z m-1970 -147 c-3 -13 -13 -27 -20 -31
-8 -4 -14 -15 -14 -23 0 -11 -9 -14 -37 -12 -30 2 -38 7 -38 22 0 10 9 24 20
30 11 6 24 17 28 24 4 6 22 12 38 12 27 0 30 -3 23 -22z m2336 -3 c0 -8 4 -15
9 -15 5 0 12 -18 16 -40 4 -22 11 -40 16 -40 5 0 9 -13 9 -30 0 -16 4 -30 8
-30 11 0 2 -134 -9 -138 -5 -2 -9 -10 -9 -17 0 -14 -29 -35 -49 -35 -6 0 -11
9 -11 20 0 11 -4 20 -10 20 -5 0 -10 13 -10 28 0 15 -5 33 -12 40 -16 16 -24
172 -9 172 6 0 11 6 11 13 0 7 6 25 13 40 13 29 37 37 37 12z m-2560 -70 c0
-8 5 -15 10 -15 6 0 10 -6 10 -14 0 -10 -15 -13 -55 -12 -30 0 -55 3 -55 5 0
3 12 16 27 28 30 26 63 30 63 8z m65 -156 c10 -30 0 -33 -13 -4 -6 14 -7 25
-2 25 5 0 12 -9 15 -21z m105 14 c-13 -3 -32 -14 -42 -26 -13 -14 -18 -16 -18
-6 0 24 22 39 55 38 26 -2 27 -2 5 -6z m-144 -55 c10 -13 12 -18 4 -11 -8 6
-32 13 -53 16 -53 7 -59 17 -10 17 29 0 45 -6 59 -22z m194 -17 c0 -7 -21 -7
-55 -1 -5 1 1 5 15 9 26 8 40 5 40 -8z m1986 2 c-4 -5 -50 -8 -102 -8 -52 0
-94 3 -94 8 0 4 46 7 102 7 56 0 98 -3 94 -7z m-2899 -93 c22 -49 25 -66 23
-162 -1 -58 3 -98 9 -98 5 0 16 -3 25 -6 12 -4 16 0 16 15 0 12 5 21 10 21 6
0 10 6 10 13 0 7 9 23 20 35 11 12 20 24 20 27 0 10 28 35 39 35 6 0 11 5 11
10 0 6 11 10 24 10 13 0 26 7 30 15 8 23 96 18 96 -5 0 -31 -36 -52 -100 -57
-64 -6 -89 -26 -57 -45 23 -12 21 -35 -3 -55 -11 -10 -20 -23 -20 -30 0 -9 -8
-11 -25 -7 -14 3 -41 3 -60 0 -32 -6 -35 -10 -35 -41 0 -19 -4 -35 -9 -35 -5
0 -12 -12 -14 -27 -2 -16 -2 5 1 45 4 66 3 72 -14 72 -11 1 -30 19 -47 45 -22
35 -30 63 -38 137 -8 79 -7 93 6 101 8 4 15 22 15 39 l0 31 28 -29 c15 -16 32
-41 39 -54z m3443 39 c0 -16 5 -29 10 -29 6 0 10 -4 10 -10 0 -5 -7 -10 -15
-10 -8 0 -15 5 -15 11 0 7 -10 9 -25 7 -31 -6 -32 9 -3 44 25 32 38 28 38 -13z
m-680 -20 c0 -11 -4 -19 -10 -19 -5 0 -10 -5 -10 -11 0 -5 5 -7 10 -4 6 3 10
-1 10 -9 0 -12 11 -16 41 -16 l41 0 -4 40 c-2 26 1 40 8 40 7 0 19 3 28 6 14
5 16 -5 16 -75 l0 -81 -85 0 -85 0 0 79 c0 74 1 79 20 74 11 -3 20 -14 20 -24z
m-2072 9 c-3 -7 -10 -13 -17 -13 -7 0 -21 -11 -31 -25 -10 -14 -21 -22 -25
-19 -9 10 44 69 62 69 8 0 13 -6 11 -12z m2562 -48 c0 -11 5 -20 12 -20 9 0 9
-3 0 -12 -10 -10 -15 -10 -22 2 -13 20 -13 50 0 50 6 0 10 -9 10 -20z m-2880
0 c0 -5 -7 -10 -15 -10 -8 0 -15 5 -15 10 0 6 7 10 15 10 8 0 15 -4 15 -10z
m2288 -32 c2 -5 10 -8 18 -8 8 0 14 -4 14 -10 0 -5 -25 -10 -55 -10 l-55 0 0
35 0 35 38 -18 c20 -9 39 -20 40 -24z m702 2 c0 -22 -5 -30 -18 -30 -10 0 -23
5 -30 12 -7 7 -12 20 -12 30 0 13 8 18 30 18 27 0 30 -3 30 -30z m288 -27 c-3
-64 4 -61 -92 -46 -52 8 -71 27 -36 36 13 3 20 13 20 30 0 27 12 32 83 36 28
1 28 1 25 -56z m-258 12 c0 -19 -4 -35 -8 -35 -4 0 -6 16 -4 35 2 19 6 35 8
35 2 0 4 -16 4 -35z m61 22 c-1 -4 -1 -20 -1 -37 0 -16 -4 -30 -10 -30 -5 0
-10 18 -10 41 0 25 4 39 11 37 6 -2 10 -7 10 -11z m69 -12 c0 -8 -9 -15 -20
-15 -20 0 -26 11 -13 23 12 13 33 7 33 -8z m-253 -37 c-3 -8 -6 -5 -6 6 -1 11
2 17 5 13 3 -3 4 -12 1 -19z m-137 2 c0 -5 12 -11 28 -11 23 -1 22 -2 -8 -8
-26 -4 -36 -12 -38 -28 -2 -13 1 -23 7 -23 6 0 11 -9 11 -21 0 -14 -5 -19 -17
-17 -14 2 -19 15 -21 55 -3 44 -6 52 -25 56 -12 2 -3 5 21 6 23 0 42 -3 42 -9z
m260 -65 c0 -24 5 -35 15 -35 8 0 15 -7 15 -16 0 -12 -6 -15 -22 -9 -13 4 -31
7 -40 6 -10 0 -18 4 -18 10 0 5 -15 9 -34 9 -19 0 -37 4 -41 9 -3 6 -27 13
-53 17 -139 20 -96 36 116 42 l62 2 0 -35z m-2870 15 c0 -5 12 -10 26 -10 14
0 23 -4 19 -10 -3 -5 -19 -10 -35 -10 -15 0 -30 -6 -33 -12 -5 -16 -249 -16
-287 -1 -21 9 -15 11 45 17 119 12 155 18 155 27 0 5 25 9 55 9 30 0 55 -4 55
-10z m2370 -56 c0 -64 -1 -66 -22 -60 -13 3 -29 6 -35 6 -7 0 -13 7 -13 15 0
8 7 15 15 15 10 0 15 10 15 30 0 27 -3 30 -30 30 -25 0 -30 -4 -30 -25 0 -14
-4 -25 -10 -25 -5 0 -10 -21 -10 -46 0 -43 -1 -46 -22 -39 -13 3 -33 9 -45 12
-21 5 -23 11 -23 79 l0 74 105 0 105 0 0 -66z m733 47 c12 -5 -16 -14 -77 -25
-52 -10 -99 -15 -104 -12 -5 3 -7 17 -4 32 l5 26 81 -7 c44 -4 89 -11 99 -14z
m-3023 -105 l0 -64 -37 -7 c-21 -4 -42 -10 -48 -13 -5 -4 -17 -7 -25 -9 -8 -1
-23 -11 -32 -23 -12 -15 -23 -19 -42 -14 -25 6 -26 9 -26 80 l0 74 44 0 c25 0
48 5 51 10 3 6 19 10 35 10 16 0 32 5 35 10 3 6 15 10 26 10 17 0 19 -7 19
-64z m2610 36 c53 -22 180 -50 185 -41 4 5 11 9 16 9 12 0 10 -120 -2 -135 -4
-6 -4 -26 0 -46 4 -19 5 -43 1 -53 -5 -17 -7 -17 -20 -2 -7 10 -19 15 -27 12
-7 -3 -13 -2 -13 2 0 4 -21 8 -46 10 -54 3 -72 11 -53 23 10 7 5 8 -13 5 -15
-2 -28 -1 -30 3 -2 5 -14 12 -27 16 -16 5 -21 4 -17 -4 4 -6 2 -11 -3 -11 -7
0 -11 42 -11 120 0 111 1 120 18 111 9 -5 28 -13 42 -19z m-3505 -49 c-11 -3
-27 -14 -36 -24 -9 -11 -21 -19 -27 -19 -6 0 -13 -8 -15 -17 -4 -17 -5 -17 -6
-1 -2 25 49 68 79 67 21 -1 21 -2 5 -6z m155 -22 c17 -15 30 -32 30 -36 0 -4
8 -15 18 -24 24 -21 38 -87 20 -94 -10 -5 -9 -9 2 -19 20 -17 24 -128 4 -128
-23 0 -44 12 -44 26 0 8 -4 14 -10 14 -5 0 -10 7 -10 15 0 8 -4 15 -10 15 -5
0 -12 11 -16 25 -3 14 -10 25 -15 25 -14 0 -11 48 3 52 10 4 10 10 0 32 -12
26 -17 126 -7 126 3 0 19 -13 35 -29z m3190 -6 c0 -31 -3 -35 -25 -35 -21 0
-25 5 -25 29 0 23 5 31 23 34 12 2 23 5 25 6 1 0 2 -15 2 -34z m-70 -25 l0
-50 -35 0 c-35 0 -35 0 -35 44 0 43 1 45 33 49 17 2 33 5 35 5 1 1 2 -20 2
-48z m-90 -55 c0 -47 -2 -85 -5 -85 -2 0 -16 12 -30 27 -25 27 -34 73 -15 73
16 0 12 37 -5 44 -27 10 -15 26 20 26 l35 0 0 -85z m-2105 45 c22 -11 46 -19
53 -20 6 0 12 -4 12 -8 0 -5 18 -14 40 -21 35 -10 39 -14 26 -26 -8 -8 -24
-15 -35 -15 -12 0 -21 -5 -21 -11 0 -7 -10 -9 -25 -5 -14 4 -25 2 -25 -3 0 -5
-17 -12 -37 -16 -21 -4 -43 -11 -49 -16 -7 -6 -34 3 -75 23 -35 18 -66 35 -69
38 -3 3 -27 13 -55 22 -31 10 -41 16 -27 17 12 1 22 5 22 10 0 5 25 13 55 16
30 4 55 11 55 15 0 9 34 16 85 18 17 1 48 -7 70 -18z m2961 -81 l1 -74 -4 68
c-2 37 -8 67 -13 67 -6 0 -10 5 -10 11 0 6 6 9 13 7 8 -3 12 -29 13 -79z
m-3978 57 c12 -4 22 -12 22 -17 0 -5 -10 -7 -22 -4 -43 11 -83 12 -95 2 -8 -6
-13 -6 -13 0 0 24 61 35 108 19z m422 4 c0 -5 -7 -10 -15 -10 -8 0 -15 5 -15
10 0 6 7 10 15 10 8 0 15 -4 15 -10z m116 -13 c16 -8 48 -22 71 -33 43 -19 55
-34 28 -34 -8 0 -15 -4 -15 -10 0 -11 11 -13 34 -4 9 3 14 9 11 14 -2 4 7 5
20 2 14 -2 25 -8 25 -12 0 -4 12 -11 26 -14 39 -10 124 -49 124 -57 0 -4 -16
-10 -35 -13 -19 -4 -35 -11 -35 -16 0 -4 -15 -12 -32 -15 -18 -4 -37 -11 -43
-15 -5 -4 -29 -14 -52 -21 -24 -6 -43 -15 -43 -19 0 -25 -112 -8 -130 20 -3 4
-22 13 -42 19 -21 7 -38 17 -38 22 0 5 -6 9 -12 9 -15 0 -121 42 -128 51 -3 4
-24 13 -47 21 -37 12 -40 15 -24 25 10 6 46 17 80 24 33 6 61 15 61 19 0 4 34
13 75 20 41 7 75 17 75 21 0 12 12 11 46 -4z m3408 7 c20 -8 24 -98 4 -91 -8
2 -12 20 -11 45 1 31 -2 42 -15 45 -9 3 -12 5 -5 6 6 0 18 -2 27 -5z m-3567
-20 c-3 -3 -12 -4 -19 -1 -8 3 -5 6 6 6 11 1 17 -2 13 -5z m2083 -12 c0 -15
-24 -32 -44 -32 -18 0 -17 1 4 20 24 21 40 26 40 12z m1333 -10 l-63 -15 0
-52 c0 -29 -3 -67 -6 -84 -6 -30 -9 -32 -38 -25 -17 3 -35 10 -41 14 -5 5 -28
11 -50 15 -22 4 -44 11 -50 15 -5 4 -23 10 -40 14 -65 15 -145 49 -145 62 0
10 9 12 33 7 17 -3 34 -9 37 -13 3 -4 21 -11 40 -15 19 -4 40 -11 45 -15 6 -4
38 -13 73 -20 34 -7 62 -17 62 -21 0 -5 16 -9 35 -9 l35 0 0 64 c0 49 -4 65
-16 70 -30 11 -33 6 -37 -56 l-3 -63 -2 68 -2 68 48 -6 c26 -3 61 -1 77 4 17
5 39 9 50 9 11 0 -8 -7 -42 -16z m-4041 -1 c-12 -7 -62 -4 -62 5 0 2 17 4 38
4 23 0 32 -3 24 -9z m248 -30 l0 -40 -40 26 c-46 30 -49 40 -17 46 54 10 57 9
57 -32z m2574 32 c11 -11 79 -33 104 -33 12 0 22 -4 22 -10 0 -5 16 -12 35
-16 l35 -6 0 -104 c0 -60 -4 -104 -10 -104 -5 0 -7 6 -4 13 5 15 -59 39 -82
30 -8 -3 -14 0 -14 7 0 6 -4 9 -9 5 -5 -3 -17 2 -25 11 -9 9 -23 13 -32 10 -8
-3 -24 -1 -35 4 -17 9 -19 22 -19 105 0 73 3 95 13 95 8 0 17 -3 21 -7z m-69
-52 c-6 -6 -21 -12 -35 -14 -61 -12 -130 -45 -130 -64 0 -7 -5 -13 -11 -13 -6
0 -8 7 -5 16 3 9 6 19 6 23 0 7 66 43 100 54 28 10 84 7 75 -2z m-2525 -33
c16 -18 29 -37 30 -43 0 -5 -12 5 -26 23 -15 19 -36 38 -48 42 -17 7 -18 9 -3
9 9 1 31 -14 47 -31z m3334 12 c14 -5 26 -15 26 -21 0 -6 -7 -8 -16 -5 -10 4
-13 2 -8 -6 5 -8 2 -9 -10 -5 -11 4 -15 3 -11 -4 4 -6 13 -8 21 -5 17 7 44 -3
44 -15 0 -5 -16 -9 -35 -9 -24 0 -35 -5 -35 -15 0 -11 -8 -13 -32 -8 -18 3
-37 10 -42 14 -6 5 -29 9 -53 9 -24 0 -43 4 -43 10 0 5 -23 12 -52 16 -47 7
-50 8 -27 18 25 10 160 32 216 35 17 0 43 -3 57 -9z m623 -12 c-3 -8 -6 -5 -6
6 -1 11 2 17 5 13 3 -3 4 -12 1 -19z m-54 -8 c3 -13 0 -20 -9 -20 -8 0 -14 9
-14 20 0 11 4 20 9 20 5 0 11 -9 14 -20z m-33 -22 c0 -5 -6 -8 -14 -8 -9 0
-12 7 -9 21 4 16 8 17 14 7 5 -7 9 -16 9 -20z m-490 12 c0 -5 -5 -10 -11 -10
-5 0 -7 5 -4 10 3 6 8 10 11 10 2 0 4 -4 4 -10z m447 -9 c1 -14 -7 -22 -28
-26 -36 -8 -39 -6 -28 20 l8 20 1 -20 c1 -19 2 -18 10 3 11 27 35 29 37 3z
m-3844 -27 c29 -28 27 -44 -4 -44 -16 0 -19 -7 -19 -41 0 -57 -20 -46 -37 21
-12 48 -12 55 3 72 22 24 26 23 57 -8z m3424 -156 c-2 -35 -3 -7 -3 62 0 69 1
97 3 63 2 -35 2 -91 0 -125z m-871 140 c2 -19 -2 -28 -12 -28 -9 0 -14 -11
-14 -30 0 -23 -4 -30 -20 -30 -11 0 -20 5 -20 10 0 6 -9 10 -19 10 -11 0 -45
10 -77 22 l-58 22 39 8 c22 5 49 12 60 18 28 13 88 29 104 27 8 -1 15 -14 17
-29z m-2715 -15 c-10 -17 -10 -16 -11 3 0 23 13 41 18 25 2 -6 -1 -18 -7 -28z
m253 1 c4 -9 4 -19 2 -22 -10 -9 -36 8 -36 23 0 20 26 19 34 -1z m3460 -15
c43 -9 61 -18 68 -35 9 -19 17 -22 44 -18 34 4 47 -9 20 -19 -18 -7 -87 3
-102 14 -6 5 -14 6 -17 2 -4 -3 -7 -1 -7 5 0 7 -9 12 -20 12 -11 0 -20 4 -20
9 0 5 -8 12 -18 15 -9 3 -23 15 -30 26 -12 19 -11 20 5 12 10 -5 44 -16 77
-23z m-401 6 c4 -10 16 -13 40 -10 25 3 39 0 48 -12 10 -12 10 -15 2 -9 -7 4
-13 3 -13 -2 0 -12 64 -22 68 -11 10 27 22 2 22 -46 0 -54 0 -54 -34 -61 -47
-8 -56 0 -56 54 0 60 -6 68 -56 74 l-41 6 5 -49 4 -48 -26 12 c-23 11 -26 18
-26 62 0 49 1 51 29 53 18 1 31 -3 34 -13z m-2283 -5 c0 -5 -16 -12 -35 -16
-36 -6 -40 -12 -48 -81 -3 -28 0 -33 17 -33 40 1 59 25 54 69 -2 23 0 41 4 41
4 0 7 -42 7 -92 l-1 -93 -46 -23 c-26 -12 -52 -22 -58 -22 -17 0 -11 69 6 80
13 8 13 10 -1 10 -13 0 -17 10 -17 40 -1 28 3 40 14 40 8 0 14 5 14 11 0 14
-77 4 -97 -13 -7 -6 -13 -7 -13 -4 0 4 -6 1 -14 -6 -11 -12 -19 -74 -17 -125
4 -68 -10 -120 -30 -108 -12 8 -12 45 1 45 6 0 10 5 10 11 0 5 -4 8 -9 4 -5
-3 -12 -1 -16 5 -3 6 1 13 9 16 9 3 16 11 16 16 0 6 -7 8 -15 4 -11 -4 -15 2
-15 20 0 14 4 22 10 19 6 -3 10 -2 10 4 0 5 -6 12 -12 15 -10 3 -8 9 5 19 21
18 22 27 1 27 -30 0 -7 25 37 41 24 8 64 25 89 36 25 12 65 28 90 36 25 8 46
15 48 16 1 0 2 -3 2 -9z m1455 -40 c-4 -11 -2 -20 4 -20 6 0 11 -4 11 -10 0
-5 -9 -10 -20 -10 -11 0 -20 -7 -20 -15 0 -9 -7 -18 -15 -21 -8 -4 -15 -10
-15 -16 0 -5 -7 -16 -15 -24 -13 -14 -16 -14 -21 -1 -7 19 22 77 39 77 16 0
40 38 32 50 -4 6 1 10 10 10 12 0 15 -6 10 -20z m270 10 c4 -6 16 -8 27 -4 13
4 18 2 14 -4 -3 -6 11 -13 34 -17 22 -4 40 -11 40 -16 0 -5 9 -9 20 -9 11 0
20 -4 20 -9 0 -5 16 -12 35 -15 19 -4 35 -11 35 -16 0 -18 -18 -20 -46 -5 -16
8 -36 15 -44 15 -8 0 -28 7 -44 15 -15 8 -35 15 -42 15 -8 0 -14 5 -14 10 0 6
-7 10 -15 10 -20 0 -65 22 -65 32 0 12 38 10 45 -2z m1155 -249 c-6 -10 -9 33
-8 119 l1 135 8 -119 c5 -71 4 -126 -1 -135z m-3690 229 c0 -5 5 -10 11 -10 6
0 17 -7 25 -15 14 -13 13 -16 -8 -24 -69 -25 -68 -26 -68 18 0 34 3 41 20 41
11 0 20 -4 20 -10z m2980 0 c0 -5 -10 -10 -22 -10 -19 0 -20 2 -8 10 19 13 30
13 30 0z m-2020 -31 c0 -17 -4 -28 -10 -24 -5 3 -10 17 -10 31 0 13 5 24 10
24 6 0 10 -14 10 -31z m1365 21 c9 -15 -6 -160 -16 -160 -5 0 -9 38 -9 85 0
78 8 102 25 75z m-2139 -9 c5 -4 30 -14 57 -21 45 -12 64 -30 32 -30 -8 0 -15
-5 -15 -11 0 -7 -12 -8 -32 -4 -22 4 -28 3 -20 -3 11 -7 9 -10 -7 -15 -12 -3
-24 -1 -27 5 -6 9 -43 5 -102 -14 -34 -10 -34 -24 1 -37 19 -7 16 -11 -27 -30
-27 -11 -55 -21 -62 -21 -8 0 -14 -4 -14 -10 0 -5 9 -10 20 -10 11 0 36 -7 55
-14 19 -8 35 -11 35 -6 0 4 -13 11 -30 15 -16 4 -30 10 -30 13 0 9 49 32 67
32 7 0 13 3 13 8 0 8 87 45 107 45 7 0 13 3 13 7 0 3 16 12 35 20 19 8 35 18
35 23 0 13 70 1 106 -18 16 -8 37 -15 47 -15 9 0 17 -5 17 -11 0 -5 4 -8 9 -5
4 3 17 -1 27 -9 13 -10 15 -14 5 -15 -8 0 -87 -36 -176 -80 -175 -87 -159 -84
-240 -49 -21 9 -76 31 -85 34 -3 1 -18 7 -35 14 -16 7 -34 14 -40 15 -5 2 -23
8 -38 14 -15 7 -39 15 -52 18 -14 3 -25 9 -25 13 0 7 108 58 144 67 14 3 26
10 26 15 0 5 8 9 18 9 9 0 40 12 67 25 28 14 56 25 63 25 6 0 12 5 12 10 0 12
32 13 46 1z m1039 -1 c-3 -5 -15 -10 -25 -10 -10 0 -22 5 -25 10 -4 6 7 10 25
10 18 0 29 -4 25 -10z m1707 2 c2 -4 26 -15 53 -24 121 -40 180 -63 183 -70 2
-4 16 -8 30 -8 15 0 22 -4 16 -8 -6 -4 -10 -32 -8 -69 1 -35 -1 -65 -6 -68 -5
-3 -7 -12 -3 -20 3 -8 3 -15 -1 -15 -11 0 -102 32 -144 51 -23 11 -56 22 -72
26 -17 3 -30 9 -30 13 0 4 -18 12 -40 19 -24 7 -40 18 -40 27 0 17 21 13 80
-16 19 -9 56 -23 83 -31 26 -7 47 -16 47 -20 0 -6 76 -29 94 -29 17 0 2 19
-16 22 -25 3 -34 32 -24 74 8 29 26 32 26 4 0 -11 5 -20 11 -20 6 0 9 12 7 28
-2 19 -9 28 -25 30 -13 2 -23 7 -23 12 0 4 -16 11 -36 15 -20 3 -44 10 -53 15
-25 13 -83 37 -108 44 -21 7 -22 4 -26 -56 l-3 -63 -2 73 c-2 56 1 72 12 72 8
0 16 -3 18 -8z m558 -2 c0 -5 6 -10 13 -10 8 0 11 -14 9 -45 -4 -49 -7 -52
-28 -31 -16 16 -19 96 -4 96 6 0 10 -4 10 -10z m-2344 -26 c-3 -9 -6 -25 -6
-36 0 -16 -2 -17 -13 -6 -20 20 -27 46 -14 52 25 10 39 6 33 -10z m2514 -4 c0
-4 -7 -10 -15 -14 -9 -3 -15 -19 -15 -41 0 -31 -3 -35 -25 -35 -23 0 -25 3
-25 48 l0 47 40 2 c22 0 40 -3 40 -7z m-2440 -15 c0 -17 -2 -18 -25 -9 -13 5
-14 8 -3 15 19 13 28 11 28 -6z m1246 -12 c-2 -16 -10 -29 -19 -31 -10 -2 -19
-18 -23 -38 -11 -59 -24 -48 -24 20 0 54 3 64 15 60 8 -4 15 -1 15 5 0 6 9 11
19 11 15 0 19 -6 17 -27z m141 -4 c23 -11 49 -19 57 -19 8 0 18 -5 21 -10 4
-6 10 -8 15 -5 5 3 11 1 15 -5 4 -6 11 -8 16 -5 15 10 18 -12 21 -148 2 -94 0
-127 -9 -127 -8 0 -13 21 -15 58 -3 49 -6 57 -23 57 -14 0 -23 -10 -30 -32
-17 -58 -25 -35 -25 70 0 106 -7 127 -41 127 -10 0 -19 4 -21 9 -1 4 -13 12
-25 15 -23 7 -23 6 -23 -93 0 -56 -4 -103 -10 -106 -6 -4 -10 38 -10 120 l0
126 23 -7 c12 -3 41 -15 64 -25z m366 -39 c4 0 12 0 17 0 6 0 10 10 11 23 1
18 2 17 10 -8 15 -47 -5 -98 -26 -65 -3 5 -12 7 -20 3 -8 -3 -15 0 -15 6 0 6
-7 11 -16 11 -8 0 -12 5 -9 10 4 6 11 8 16 5 5 -4 10 13 10 37 2 41 2 41 8 10
3 -18 9 -33 14 -32z m-600 34 c7 -7 -2 -34 -12 -34 -4 0 -7 9 -8 20 -2 19 8
26 20 14z m1067 -21 c0 -15 40 -33 71 -33 10 0 19 7 19 15 0 8 9 15 20 15 15
0 20 -7 20 -25 0 -22 4 -25 39 -25 29 0 41 5 44 18 3 9 5 -5 6 -31 l1 -48 -37
28 c-20 15 -34 22 -29 16 12 -20 -1 -15 -24 9 -15 16 -23 19 -28 11 -9 -15
-76 2 -106 26 -11 9 -16 10 -12 4 4 -7 3 -13 -2 -13 -9 0 -22 23 -22 39 0 4 9
7 20 7 11 0 20 -6 20 -13z m217 -5 c-3 -8 -6 -5 -6 6 -1 11 2 17 5 13 3 -3 4
-12 1 -19z m-597 -38 c0 -38 -4 -50 -15 -50 -27 0 -15 96 13 100 1 0 2 -22 2
-50z m41 10 c5 0 9 -18 9 -40 0 -29 -4 -40 -15 -40 -12 0 -15 13 -14 58 1 31
3 49 6 40 2 -10 9 -18 14 -18z m-723 -28 c3 -25 0 -31 -12 -26 -10 4 -16 18
-16 36 0 40 24 32 28 -10z m872 -32 c0 -66 -15 -82 -22 -23 -5 44 1 83 13 83
5 0 9 -27 9 -60z m216 29 c19 -10 43 -19 54 -19 10 0 22 -4 25 -10 3 -5 14
-10 23 -10 9 0 29 -6 43 -14 48 -25 80 -27 152 -10 40 9 77 21 84 26 7 6 19 6
30 -1 16 -9 15 -11 -9 -20 -15 -6 -35 -8 -45 -4 -10 4 -14 2 -10 -4 5 -7 -12
-18 -42 -28 -27 -9 -52 -23 -55 -32 -4 -10 -13 -13 -29 -9 -12 4 -26 8 -32 10
-26 8 -113 43 -135 55 -9 5 -35 12 -58 16 -23 4 -42 11 -42 16 0 5 -9 9 -20 9
-11 0 -20 5 -20 10 0 6 -9 10 -20 10 -14 0 -20 7 -20 21 0 20 4 21 46 14 25
-3 62 -15 80 -26z m520 -16 c-15 -8 -31 -11 -36 -8 -6 3 -10 1 -10 -6 0 -7 -2
-10 -5 -7 -11 11 8 37 28 40 39 7 52 -4 23 -19z m-1512 -2 c3 -5 -1 -12 -10
-15 -22 -9 -24 -8 -24 9 0 16 25 21 34 6z m824 -28 c-5 -25 -28 -28 -28 -4 0
12 6 21 16 21 9 0 14 -7 12 -17z m37 7 c3 -5 1 -10 -4 -10 -6 0 -11 5 -11 10
0 6 2 10 4 10 3 0 8 -4 11 -10z m-2855 -108 c0 -96 -2 -108 -20 -120 -19 -12
-20 -10 -20 76 0 49 -3 91 -6 94 -3 3 -23 -1 -45 -10 l-39 -15 0 -102 0 -103
-40 -16 c-22 -9 -52 -16 -66 -16 -14 0 -36 -11 -50 -25 -14 -14 -27 -25 -29
-25 -3 0 -5 50 -5 110 0 72 4 110 11 110 6 0 17 6 24 13 35 30 45 36 84 48 22
7 41 16 41 22 0 5 7 7 15 3 8 -3 15 -1 15 4 0 5 11 12 25 16 14 3 25 10 25 14
0 6 49 26 73 29 4 1 7 -47 7 -107z m1933 81 c-7 -2 -19 -2 -25 0 -7 3 -2 5 12
5 14 0 19 -2 13 -5z m561 -39 c22 -3 62 -17 88 -30 27 -14 51 -25 55 -25 5 -1
18 -5 31 -10 13 -5 30 -9 38 -9 21 0 20 -195 -1 -216 -13 -14 -15 -13 -15 3 0
15 -2 16 -10 3 -8 -13 -11 -11 -16 8 -8 26 -21 29 -27 5 -4 -15 -6 -15 -12 4
-4 13 -11 21 -15 18 -4 -3 -13 2 -20 10 -16 19 -30 19 -30 0 0 -8 -4 -15 -10
-15 -6 0 -10 43 -10 110 0 88 -3 110 -14 110 -8 0 -16 5 -18 10 -2 6 -19 13
-38 16 l-35 6 1 -100 c1 -81 -1 -99 -12 -95 -11 4 -14 33 -14 124 l0 120 21
-20 c12 -11 40 -23 63 -27z m466 11 c30 -10 57 -21 60 -25 3 -3 32 -14 65 -24
33 -11 65 -22 70 -26 6 -5 27 -11 48 -15 l37 -7 0 -103 c0 -138 -6 -165 -36
-165 -24 0 -24 1 -24 115 l0 115 -42 20 c-67 32 -68 31 -68 -65 l0 -85 -30 0
c-19 0 -29 5 -27 13 1 8 -9 11 -31 9 -27 -2 -35 2 -39 18 -4 14 -14 20 -34 20
l-29 0 0 121 c0 95 3 119 13 112 6 -5 37 -17 67 -28z m-820 -14 c0 -6 -5 -13
-10 -16 -6 -4 -8 -10 -6 -14 3 -4 -1 -8 -9 -8 -18 0 -18 2 -3 27 13 21 28 27
28 11z m363 -94 c14 -5 17 -19 17 -72 0 -36 -3 -65 -6 -65 -3 0 -14 5 -25 11
-17 9 -19 20 -18 80 1 39 5 67 8 62 3 -5 14 -12 24 -16z m-123 -6 c0 -5 -11
-11 -25 -13 -20 -4 -23 -3 -14 8 13 16 39 19 39 5z m-3060 -30 c0 -21 -6 -30
-21 -34 -20 -5 -20 -5 -3 14 12 13 13 19 4 19 -10 0 -10 3 0 15 17 21 20 19
20 -14z m3003 -21 c-5 -19 -23 -29 -23 -12 0 7 20 32 26 32 1 0 0 -9 -3 -20z
m-2940 -37 c-7 -2 -21 -2 -30 0 -10 3 -4 5 12 5 17 0 24 -2 18 -5z m-91 -45
c-7 -7 -12 -8 -12 -2 0 14 12 26 19 19 2 -3 -1 -11 -7 -17z m98 13 c0 -6 -9
-9 -19 -8 -11 0 -17 5 -15 9 7 11 34 10 34 -1z m3770 -44 c0 -11 -4 -15 -12
-11 -8 5 -9 1 -5 -12 7 -18 7 -18 -8 0 -16 21 -20 58 -8 70 10 10 33 -23 33
-47z m-3880 18 c6 -8 9 -18 6 -23 -5 -9 13 -20 74 -42 62 -22 79 -23 105 -6
24 16 25 16 25 -4 0 -39 84 -54 115 -20 13 14 22 17 29 10 7 -7 6 -14 -2 -22
-7 -7 -12 -24 -12 -39 l0 -26 -107 4 c-59 2 -112 8 -117 13 -7 7 -4 10 7 10
17 0 17 1 0 25 -10 13 -26 25 -35 25 -10 0 -18 5 -18 10 0 6 -9 10 -19 10 -11
0 -21 3 -23 8 -4 10 -67 42 -84 42 -19 0 -18 17 4 29 24 14 38 13 52 -4z m188
-12 c3 -18 -2 -23 -18 -23 -30 0 -52 24 -37 39 19 19 52 9 55 -16z m3912 -15
c0 -4 -4 -8 -9 -8 -6 0 -12 4 -15 8 -3 5 1 9 9 9 8 0 15 -4 15 -9z m-3810 -8
c0 -5 -7 -7 -15 -4 -8 4 -15 8 -15 10 0 2 7 4 15 4 8 0 15 -4 15 -10z m3770
-16 c16 -3 40 -17 40 -24 0 -15 -47 2 -59 22 -10 16 -10 19 1 12 7 -5 15 -9
18 -10z m-702 -15 c2 -5 11 -9 20 -9 15 0 15 -2 -1 -17 -9 -9 -18 -15 -19 -12
-2 2 -14 17 -28 33 l-25 28 25 -7 c14 -4 27 -12 28 -16z m-2578 -4 c0 -8 5
-15 11 -15 13 0 39 -25 39 -38 0 -5 9 -12 19 -15 15 -4 19 -12 17 -33 -2 -16
-4 -46 -5 -66 l-1 -38 -85 0 -85 0 0 40 0 40 -59 0 c-58 0 -59 -1 -65 -31 -3
-17 -6 -87 -6 -155 l0 -124 64 0 65 0 3 38 3 37 83 3 82 3 0 -67 c0 -58 -3
-70 -25 -90 -14 -13 -25 -28 -25 -34 0 -5 -7 -10 -15 -10 -8 0 -15 -7 -15 -15
0 -13 -23 -15 -148 -15 -135 0 -149 2 -165 20 -19 23 -22 40 -7 40 6 0 10 -7
10 -15 0 -13 24 -15 155 -15 131 0 155 2 155 15 0 8 7 15 15 15 8 0 15 7 15
15 0 8 7 15 15 15 12 0 15 13 15 55 l0 55 -60 0 c-53 0 -60 -2 -60 -20 0 -39
-35 -60 -98 -60 -45 0 -60 4 -69 19 -7 11 -15 81 -18 164 -6 142 -6 145 17
168 20 22 30 24 86 21 34 -2 60 -8 56 -13 -3 -5 2 -9 10 -9 9 0 17 -4 17 -10
1 -5 3 -14 4 -20 1 -5 3 -14 4 -20 0 -5 24 -10 51 -10 l50 0 0 38 c0 28 -8 44
-30 66 -17 16 -30 35 -30 43 0 10 -30 13 -140 13 -77 0 -140 -4 -140 -9 0 -4
-16 -25 -35 -45 l-35 -37 0 -195 c0 -123 4 -194 10 -194 6 0 10 -7 10 -15 0
-8 -4 -15 -10 -15 -5 0 -10 6 -10 14 0 8 -7 16 -15 20 -13 4 -15 38 -15 216 0
161 3 210 13 211 6 0 28 18 47 39 l35 38 148 1 c124 1 147 -1 147 -14z m540 0
c0 -8 5 -15 11 -15 13 0 39 -25 39 -38 0 -5 9 -12 20 -15 19 -5 20 -14 20
-209 l0 -204 -30 -24 c-16 -14 -29 -31 -30 -37 0 -7 -7 -13 -15 -13 -8 0 -15
-7 -15 -15 0 -13 -23 -15 -150 -15 -127 0 -150 2 -150 15 0 8 -7 15 -15 15 -8
0 -15 5 -15 10 0 6 -11 21 -24 33 -22 21 -23 29 -31 225 l-7 203 36 35 c19 19
40 34 46 34 5 0 10 7 10 15 0 13 23 15 150 15 127 0 150 -2 150 -15z m554 -10
c13 -14 28 -25 35 -25 6 0 11 -7 11 -15 0 -8 7 -15 15 -15 12 0 15 -18 15
-100 0 -59 -4 -100 -10 -100 -15 0 -50 -33 -50 -48 0 -7 7 -15 15 -18 8 -4 15
-12 15 -20 0 -8 7 -14 15 -14 12 0 15 -19 15 -110 l0 -110 -85 0 -85 0 0 75
c0 58 -4 77 -15 81 -8 4 -15 13 -15 21 0 24 -26 43 -59 43 l-31 0 0 -64 c0
-35 -3 -84 -6 -110 l-7 -46 -83 0 -84 0 0 300 0 300 185 0 c185 0 186 0 209
-25z m896 -275 l0 -300 -90 0 -90 0 0 300 0 300 90 0 90 0 0 -300z m490 270
c16 -16 30 -33 30 -38 0 -6 9 -12 21 -15 21 -6 21 -8 14 -214 -7 -201 -8 -209
-31 -230 -13 -12 -24 -27 -24 -33 0 -5 -7 -10 -15 -10 -8 0 -15 -7 -15 -15 0
-23 -375 -22 -384 1 -3 9 -6 144 -6 300 l0 284 190 0 189 0 31 -30z m538 5
c11 -14 25 -25 31 -25 6 0 11 -7 11 -15 0 -8 7 -15 15 -15 13 0 15 -36 15
-260 l0 -260 -85 0 -84 0 -3 108 -3 107 -62 3 -63 3 0 -111 0 -110 -85 0 -85
0 0 260 c0 224 2 260 15 260 8 0 15 7 15 15 0 8 6 15 13 15 6 0 21 11 32 25
19 23 24 24 162 25 139 0 142 0 161 -25z m152 -60 c0 -12 13 -15 55 -15 42 0
55 -3 55 -15 0 -12 -14 -15 -70 -15 l-70 0 0 30 c0 20 5 30 15 30 8 0 15 -7
15 -15z m208 -9 c3 -3 0 -12 -6 -19 -7 -8 -9 -16 -6 -19 2 -3 -2 -8 -11 -12
-12 -4 -14 -2 -5 13 11 21 -11 48 -30 36 -5 -3 -10 1 -10 9 0 12 6 13 31 6 18
-5 34 -12 37 -14z m106 -15 c-21 -21 -29 -19 -21 4 4 8 14 15 23 15 16 0 16
-2 -2 -19z m-3924 -55 c0 -15 -51 -29 -75 -20 -8 4 -15 12 -15 20 0 10 13 14
45 14 32 0 45 -4 45 -14z m3760 -6 c30 -10 26 -12 -22 -15 -26 -1 -38 2 -38
11 0 15 21 16 60 4z m-150 -10 c0 -5 -7 -10 -15 -10 -8 0 -15 5 -15 10 0 6 7
10 15 10 8 0 15 -4 15 -10z m99 -36 c14 -12 -20 -24 -70 -24 -45 0 -59 3 -59
14 0 9 13 16 33 19 30 4 88 -1 96 -9z m-3740 0 c51 -11 35 -24 -29 -24 -72 0
-82 22 -14 29 6 0 26 -2 43 -5z m31 -79 c0 -8 -4 -15 -10 -15 -5 0 -7 7 -4 15
4 8 8 15 10 15 2 0 4 -7 4 -15z m3698 3 c-3 -8 -27 -14 -61 -16 -46 -2 -57 0
-57 13 0 12 13 15 61 15 44 0 60 -3 57 -12z m-3438 -428 c0 -11 5 -20 11 -20
6 0 26 -16 45 -35 31 -32 34 -41 34 -95 l0 -60 -90 0 -90 0 0 40 0 40 -59 0
-58 0 -6 -82 c-4 -46 -7 -116 -7 -155 0 -40 -4 -73 -9 -73 -15 0 -20 40 -21
175 -1 157 4 165 101 165 67 0 92 -15 92 -56 0 -24 2 -25 56 -22 l56 3 -2 35
c-1 19 -7 36 -13 38 -5 2 -10 10 -10 18 0 8 -5 14 -10 14 -6 0 -16 11 -22 25
-11 25 -12 25 -150 25 -92 0 -138 -4 -138 -11 0 -6 -16 -26 -35 -45 l-35 -34
0 -191 c0 -192 0 -192 25 -215 26 -24 33 -44 15 -44 -5 0 -10 7 -10 15 0 8 -7
15 -15 15 -8 0 -15 7 -15 15 0 8 -7 15 -15 15 -13 0 -15 30 -15 209 0 176 2
210 15 215 8 3 15 12 15 21 0 8 4 15 10 15 15 0 50 33 50 47 0 10 35 13 150
13 143 0 150 -1 150 -20z m540 7 c0 -14 35 -47 50 -47 6 0 10 -7 10 -15 0 -9
7 -18 15 -21 13 -5 15 -39 15 -215 0 -179 -2 -209 -15 -209 -8 0 -15 -7 -15
-15 0 -8 -7 -15 -15 -15 -8 0 -15 -7 -15 -15 0 -8 -7 -15 -15 -15 -8 0 -15 -7
-15 -15 0 -13 -23 -15 -151 -15 -116 0 -150 3 -147 13 4 9 45 13 151 15 122 2
147 5 147 17 0 8 5 15 10 15 6 0 19 9 30 20 19 19 20 33 20 208 l0 188 -35 37
c-19 20 -35 42 -35 47 0 6 -50 10 -130 10 l-129 0 -31 -30 c-16 -16 -30 -34
-30 -39 0 -5 -4 -11 -9 -13 -5 -1 -13 -92 -17 -200 -6 -180 -5 -198 10 -198 9
0 16 -7 16 -15 0 -8 7 -15 15 -15 8 0 15 -7 15 -15 0 -8 -7 -15 -15 -15 -8 0
-15 7 -15 15 0 8 -7 15 -15 15 -8 0 -15 7 -15 15 0 8 -7 15 -15 15 -13 0 -15
30 -15 210 0 180 2 210 15 210 8 0 15 7 15 15 0 9 8 19 18 22 22 9 36 23 45
46 6 15 22 17 152 17 111 0 145 -3 145 -13z m340 -222 l5 -230 118 -3 117 -3
0 -70 0 -69 -207 2 -208 3 -3 288 c-2 159 -1 295 2 304 5 11 23 14 88 11 l83
-3 5 -230z m711 230 c29 -6 29 -8 29 -76 l0 -69 -130 0 -130 0 0 -40 0 -40 90
0 90 0 0 -70 0 -70 -91 0 -90 0 3 -47 3 -48 128 -3 127 -3 0 -69 0 -70 -220 0
-220 0 0 298 c0 164 2 301 4 303 8 7 376 11 407 4z m463 -1 c9 -3 16 -12 16
-20 0 -8 7 -14 15 -14 8 0 15 -4 15 -10 0 -5 7 -10 15 -10 8 0 15 -7 15 -15 0
-9 7 -18 15 -21 10 -4 15 -20 15 -50 l0 -44 -90 0 c-83 0 -90 1 -90 20 0 18
-7 20 -60 20 l-60 0 0 -72 c0 -102 -12 -238 -20 -238 -4 0 -10 68 -14 151 -7
144 -7 152 13 170 28 26 132 27 161 2 36 -32 130 -36 130 -6 0 8 -16 30 -35
50 -19 20 -35 40 -35 45 0 4 -63 8 -140 8 -77 0 -140 -3 -140 -8 0 -4 -16 -25
-35 -47 l-35 -40 0 -192 c0 -165 2 -193 15 -193 8 0 15 -7 15 -15 0 -8 7 -15
15 -15 8 0 15 -7 15 -15 0 -13 23 -15 150 -15 127 0 150 2 150 15 0 8 7 15 15
15 8 0 15 7 15 15 0 8 7 15 15 15 8 0 15 -7 15 -15 0 -8 -7 -15 -15 -15 -8 0
-15 -7 -15 -15 0 -8 -7 -15 -15 -15 -8 0 -15 -7 -15 -15 0 -13 -23 -15 -150
-15 -127 0 -150 2 -150 15 0 8 -7 15 -15 15 -8 0 -15 7 -15 15 0 8 -7 15 -15
15 -8 0 -15 7 -15 15 0 8 -7 15 -15 15 -13 0 -15 30 -15 210 0 180 2 210 15
210 8 0 15 9 15 20 0 11 7 20 15 20 8 0 15 5 15 10 0 6 6 10 14 10 7 0 16 9
19 20 5 19 14 20 135 20 72 0 137 -3 146 -6z m351 -299 l0 -300 -87 -3 -88 -3
0 306 0 305 88 -2 87 -3 0 -300z m465 292 c0 -14 35 -47 50 -47 6 0 10 -7 10
-15 0 -9 7 -18 15 -21 13 -5 15 -44 15 -260 l0 -254 -85 0 -85 0 0 110 0 110
-65 0 -65 0 0 -110 0 -110 -85 0 -85 0 0 254 c0 216 2 255 15 260 8 3 15 12
15 21 0 8 7 15 15 15 8 0 15 5 15 10 0 6 6 10 14 10 7 0 16 9 19 20 5 19 14
20 146 20 108 0 141 -3 141 -13z m348 -224 l2 -233 115 0 115 0 0 -70 0 -70
-205 0 -205 0 0 306 0 306 88 -4 87 -3 3 -232z m-2767 117 c11 0 18 -4 15 -9
-3 -5 0 -11 7 -14 12 -5 13 -19 9 -224 -3 -143 -22 -116 -22 31 0 68 -3 138
-6 155 -6 30 -7 31 -65 31 l-59 0 0 -155 c0 -131 -2 -155 -15 -155 -12 0 -15
21 -17 123 -2 156 0 187 16 203 13 12 79 24 104 17 8 -2 23 -3 33 -3z m-591
-158 c0 -15 5 -33 12 -40 9 -9 9 -15 0 -24 -7 -7 -12 -25 -12 -40 0 -15 -4
-28 -9 -28 -12 0 -25 112 -16 139 9 30 25 26 25 -7z m2300 -108 c0 -104 -3
-135 -12 -132 -9 3 -14 39 -16 121 l-3 117 -94 0 c-84 0 -95 -2 -95 -17 0 -10
-3 -28 -6 -40 -6 -21 -3 -23 35 -23 l41 0 0 -50 c0 -27 -4 -50 -10 -50 -5 0
-10 16 -10 35 0 34 -1 35 -40 35 l-40 0 0 70 0 70 125 0 125 0 0 -136z m-2071
-65 c-1 -42 -5 -62 -15 -66 -8 -3 -14 -11 -14 -19 0 -8 -7 -14 -15 -14 -8 0
-15 -7 -15 -15 0 -8 -7 -15 -15 -15 -8 0 -15 -7 -15 -15 0 -13 -23 -15 -150
-15 -127 0 -150 2 -150 15 0 13 23 15 150 15 127 0 150 2 150 15 0 8 7 15 15
15 8 0 15 7 15 15 0 8 7 15 15 15 12 0 15 13 15 55 l0 55 -60 0 c-57 0 -60 -1
-60 -25 0 -16 -6 -25 -15 -25 -10 0 -15 11 -15 35 l0 35 90 0 90 0 -1 -61z
m-179 -29 c0 -6 -26 -10 -59 -10 -33 0 -63 5 -66 10 -4 6 18 10 59 10 37 0 66
-4 66 -10z m540 0 c0 -6 -27 -10 -60 -10 -33 0 -60 4 -60 10 0 6 27 10 60 10
33 0 60 -4 60 -10z m1535 0 c-3 -5 -33 -10 -66 -10 -33 0 -59 4 -59 10 0 6 29
10 66 10 41 0 63 -4 59 -10z m-1334 -200 c10 -26 16 -30 47 -30 52 0 82 -10
82 -26 0 -8 9 -14 19 -14 11 0 22 -4 26 -9 3 -5 19 -12 35 -16 17 -4 30 -11
30 -16 0 -5 6 -9 14 -9 8 0 16 -3 18 -7 2 -5 28 -20 58 -36 74 -37 114 -60
118 -69 2 -5 10 -8 18 -8 8 0 14 -4 14 -10 0 -5 6 -10 13 -10 18 0 67 -24 67
-32 0 -5 9 -8 20 -8 11 0 20 -4 20 -10 0 -5 7 -10 15 -10 8 0 15 -4 15 -10 0
-5 10 -10 23 -10 13 0 33 -9 45 -20 12 -11 30 -20 42 -20 11 0 20 -3 20 -7 0
-11 50 -33 72 -33 10 0 18 -4 18 -10 0 -5 16 -10 35 -10 19 0 35 5 35 10 0 6
11 10 25 10 14 0 25 5 25 10 0 6 9 10 20 10 11 0 20 5 20 10 0 6 8 10 18 10
10 0 28 9 40 20 12 11 30 20 40 20 10 0 28 9 40 20 12 11 28 20 37 20 8 0 15
5 15 10 0 6 7 10 15 10 15 0 55 19 65 31 3 3 20 12 38 20 17 8 32 17 32 21 0
5 7 8 15 8 8 0 15 5 15 10 0 6 5 10 12 10 11 0 119 50 128 60 9 10 92 50 104
50 6 0 18 9 26 20 12 17 26 20 100 20 80 0 83 -1 58 -14 -15 -8 -38 -22 -50
-30 -12 -9 -30 -16 -40 -16 -10 0 -18 -4 -18 -10 0 -5 -7 -10 -15 -10 -8 0
-15 -4 -15 -8 0 -5 -16 -14 -35 -22 -19 -8 -35 -16 -35 -20 0 -3 -20 -14 -45
-25 -25 -11 -45 -23 -45 -27 0 -5 -7 -8 -15 -8 -8 0 -15 -4 -15 -10 0 -5 -8
-10 -19 -10 -10 0 -29 -9 -43 -19 -13 -11 -37 -23 -51 -26 -15 -4 -27 -11 -27
-16 0 -5 -7 -9 -15 -9 -8 0 -15 -4 -15 -10 0 -5 -9 -10 -20 -10 -11 0 -20 -4
-20 -8 0 -5 -16 -14 -35 -22 -19 -8 -35 -17 -35 -22 0 -4 -9 -8 -20 -8 -11 0
-20 -4 -20 -10 0 -5 -7 -10 -15 -10 -8 0 -15 -4 -15 -10 0 -5 -7 -10 -15 -10
-9 0 -33 -11 -55 -25 -22 -14 -44 -25 -50 -25 -5 0 -10 -4 -10 -10 0 -5 -9
-10 -20 -10 -11 0 -20 -4 -20 -10 0 -5 -11 -10 -25 -10 -16 0 -25 -6 -25 -15
0 -20 -56 -20 -64 0 -3 8 -14 15 -25 15 -11 0 -22 4 -26 9 -3 5 -19 12 -35 16
-17 4 -30 11 -30 16 0 5 -7 9 -15 9 -8 0 -15 5 -15 10 0 6 -9 10 -20 10 -11 0
-20 5 -20 10 0 6 -7 10 -15 10 -8 0 -15 3 -15 8 0 4 -15 13 -32 21 -18 8 -35
17 -38 21 -3 3 -34 21 -70 39 -112 56 -165 86 -168 94 -2 4 -12 7 -23 7 -10 0
-19 5 -19 10 0 6 -7 10 -15 10 -8 0 -15 3 -15 8 0 4 -19 16 -43 27 -23 11 -44
22 -47 25 -8 9 -77 40 -89 40 -6 0 -11 4 -11 8 0 5 -16 14 -35 22 -19 8 -35
17 -35 22 0 4 -7 8 -15 8 -8 0 -15 4 -15 9 0 5 -10 11 -22 14 -20 6 -20 7 11
36 18 17 35 31 38 31 2 0 9 -13 14 -30z"/>
<path d="M3681 3524 c0 -11 3 -14 6 -6 3 7 2 16 -1 19 -3 4 -6 -2 -5 -13z"/>
<path d="M3657 3474 c-9 -10 2 -24 19 -24 8 0 14 7 14 15 0 15 -21 21 -33 9z"/>
<path d="M3520 3325 c0 -18 5 -25 20 -25 15 0 20 7 20 25 0 18 -5 25 -20 25
-15 0 -20 -7 -20 -25z"/>
<path d="M1293 3293 c-20 -4 -23 -11 -23 -48 l0 -43 40 10 c38 10 40 12 40 49
0 41 -3 42 -57 32z"/>
<path d="M1236 3215 c4 -8 8 -15 10 -15 2 0 4 7 4 15 0 8 -4 15 -10 15 -5 0
-7 -7 -4 -15z"/>
<path d="M3992 3290 c0 -14 2 -19 5 -12 2 6 2 18 0 25 -3 6 -5 1 -5 -13z"/>
<path d="M4027 3263 c-10 -55 -4 -78 23 -82 14 -1 27 -6 30 -11 3 -4 19 -10
35 -14 l30 -6 3 55 c3 61 -1 65 -81 80 -32 6 -35 5 -40 -22z"/>
<path d="M4160 3240 c0 -5 5 -10 10 -10 6 0 10 5 10 10 0 6 -4 10 -10 10 -5 0
-10 -4 -10 -10z"/>
<path d="M4200 3230 c0 -5 5 -10 10 -10 6 0 10 5 10 10 0 6 -4 10 -10 10 -5 0
-10 -4 -10 -10z"/>
<path d="M4160 3190 c0 -10 10 -17 30 -18 20 -2 30 2 30 12 0 8 -13 16 -30 18
-23 3 -30 1 -30 -12z"/>
<path d="M3991 3154 c0 -11 3 -14 6 -6 3 7 2 16 -1 19 -3 4 -6 -2 -5 -13z"/>
<path d="M4012 3148 c3 -7 15 -15 27 -16 15 -3 22 1 19 9 -2 7 -14 14 -27 16
-15 2 -21 -1 -19 -9z"/>
<path d="M4167 3139 c3 -10 11 -15 19 -12 21 8 17 32 -5 30 -12 -1 -17 -7 -14
-18z"/>
<path d="M4087 3124 c5 -14 42 -26 55 -18 17 11 6 22 -26 26 -23 2 -32 0 -29
-8z"/>
<path d="M4172 3098 c7 -20 48 -23 48 -4 0 11 -9 16 -26 16 -16 0 -24 -5 -22
-12z"/>
<path d="M1547 3163 c-11 -10 -8 -20 9 -37 21 -22 41 -20 47 4 7 27 -37 53
-56 33z"/>
<path d="M1485 3140 c-5 -8 64 -45 71 -38 1 2 -13 13 -31 25 -19 13 -37 18
-40 13z"/>
<path d="M1080 3130 c0 -5 5 -10 10 -10 6 0 10 5 10 10 0 6 -4 10 -10 10 -5 0
-10 -4 -10 -10z"/>
<path d="M1135 3070 c-3 -5 -13 -10 -21 -10 -9 0 -22 -7 -30 -15 -9 -8 -20
-15 -25 -15 -5 0 -9 7 -9 15 0 8 -9 15 -20 15 -11 0 -20 -6 -20 -14 0 -8 -3
-22 -7 -32 -5 -15 -2 -16 27 -10 19 3 41 13 50 21 9 8 22 15 28 15 7 0 20 4
30 9 9 5 28 14 42 19 25 11 25 11 -7 11 -17 1 -35 -3 -38 -9z"/>
<path d="M1270 3018 c0 -4 4 -8 9 -8 6 0 12 4 15 8 3 5 -1 9 -9 9 -8 0 -15 -4
-15 -9z"/>
<path d="M3140 3100 c0 -11 4 -20 9 -20 11 0 22 26 14 34 -12 12 -23 5 -23
-14z"/>
<path d="M3180 3061 c0 -56 1 -56 53 -66 l37 -7 0 46 c0 43 -2 47 -36 61 -20
8 -40 15 -45 15 -5 0 -9 -22 -9 -49z"/>
<path d="M3145 3057 c-4 -10 -5 -21 -1 -24 10 -10 18 4 13 24 -4 17 -4 17 -12
0z"/>
<path d="M3306 3052 c-2 -4 4 -13 15 -20 16 -11 19 -9 19 8 0 19 -24 28 -34
12z"/>
<path d="M3142 2993 c2 -12 18 -21 48 -27 25 -5 48 -14 51 -19 8 -11 40 -5 40
8 0 6 -18 12 -39 15 -22 4 -51 14 -65 23 -33 21 -39 21 -35 0z"/>
<path d="M3280 2996 c0 -10 9 -16 21 -16 24 0 21 23 -4 28 -10 2 -17 -3 -17
-12z"/>
<path d="M3303 2935 c0 -8 9 -17 19 -21 24 -7 30 -2 22 20 -8 20 -41 21 -41 1z"/>
<path d="M3650 2925 c0 -8 5 -15 10 -15 6 0 10 7 10 15 0 8 -4 15 -10 15 -5 0
-10 -7 -10 -15z"/>
<path d="M3800 2861 c0 -27 4 -31 26 -31 22 0 25 4 22 28 -2 19 -9 28 -25 30
-20 3 -23 -1 -23 -27z"/>
<path d="M1380 2810 c0 -5 5 -10 10 -10 6 0 10 5 10 10 0 6 -4 10 -10 10 -5 0
-10 -4 -10 -10z"/>
<path d="M1365 2769 c-4 -6 -5 -12 -3 -14 7 -7 48 7 48 16 0 13 -37 11 -45 -2z"/>
<path d="M715 2820 c3 -5 13 -10 21 -10 8 0 12 5 9 10 -3 6 -13 10 -21 10 -8
0 -12 -4 -9 -10z"/>
<path d="M783 2706 c-9 -10 -6 -13 15 -13 15 0 36 -3 47 -7 16 -6 15 -4 -5 13
-29 24 -41 25 -57 7z"/>
<path d="M3280 2710 c0 -34 4 -42 26 -50 35 -14 34 -14 34 26 0 23 -6 42 -17
50 -32 24 -43 17 -43 -26z"/>
<path d="M848 2547 c-26 -10 -28 -15 -28 -64 l0 -53 28 13 c42 19 52 33 52 76
0 44 -5 47 -52 28z"/>
<path d="M3660 2561 c13 -26 14 -82 0 -61 -9 13 -10 13 -10 -1 0 -17 71 -59
102 -59 18 0 19 2 7 17 -11 13 -11 17 -1 20 6 3 12 14 12 24 0 11 -4 17 -10
14 -5 -3 -10 1 -10 10 0 8 -12 20 -27 25 -16 6 -36 15 -45 20 -26 15 -30 12
-18 -9z"/>
<path d="M3663 2426 c9 -9 22 -16 31 -16 8 0 18 -4 21 -10 8 -12 45 -13 45 -1
0 17 -30 33 -71 37 -38 5 -40 4 -26 -10z"/>
<path d="M4012 2559 c3 -49 4 -51 41 -64 42 -14 44 -13 47 35 3 54 1 60 -19
60 -11 0 -23 5 -26 10 -3 6 -15 10 -26 10 -18 0 -20 -6 -17 -51z"/>
<path d="M4280 2380 c0 -5 4 -10 9 -10 6 0 13 5 16 10 3 6 -1 10 -9 10 -9 0
-16 -4 -16 -10z"/>
<path d="M1400 2280 c0 -9 -19 -35 -47 -64 -7 -8 -14 -84 -18 -209 -7 -178 -6
-197 9 -197 9 0 16 -7 16 -15 0 -8 7 -15 15 -15 8 0 15 -7 15 -15 0 -13 23
-15 150 -15 127 0 150 2 150 15 0 8 7 15 15 15 8 0 15 7 15 15 0 8 7 15 16 15
15 0 16 19 9 198 -4 108 -11 199 -16 200 -5 2 -9 9 -9 16 0 6 -9 18 -20 26
-11 8 -20 20 -20 27 0 10 -33 13 -140 13 -86 0 -140 -4 -140 -10z m208 -82
c21 -11 22 -16 22 -167 0 -146 -1 -158 -21 -174 -24 -21 -130 -21 -137 1 -3 9
14 12 62 12 l66 0 0 155 0 155 -60 0 -59 0 -3 -152 c-2 -99 -7 -153 -14 -155
-7 -2 -13 45 -18 147 -7 149 -7 151 16 175 20 22 29 24 73 19 28 -3 60 -10 73
-16z"/>
<path d="M1886 2274 c-3 -9 -6 -130 -6 -270 l0 -254 60 0 60 0 0 110 0 110 56
0 c47 0 57 -3 61 -20 3 -11 9 -20 14 -20 5 0 9 -6 9 -14 0 -8 7 -16 15 -20 11
-4 15 -22 15 -76 l0 -70 60 0 60 0 0 90 c0 86 -1 91 -30 120 -32 33 -39 60
-15 60 8 0 15 7 15 15 0 8 7 15 15 15 12 0 15 15 15 71 0 66 -2 73 -35 112
-19 22 -35 44 -35 49 0 4 -74 8 -164 8 -140 0 -165 -2 -170 -16z m275 -83 c16
-15 20 -29 17 -72 -2 -37 -7 -53 -15 -51 -7 1 -13 -5 -13 -13 0 -12 -15 -15
-74 -15 -85 0 -84 -1 -82 101 l1 64 35 7 c51 9 108 0 131 -21z"/>
<path d="M2030 2125 l0 -55 53 0 c30 0 56 2 58 4 2 2 2 27 1 55 l-4 51 -54 0
-54 0 0 -55z"/>
<path d="M2988 2088 c-2 -112 -3 -232 -3 -268 l0 -65 63 -3 62 -3 0 89 c0 49
-3 171 -7 270 l-6 182 -54 0 -53 0 -2 -202z"/>
<path d="M3250 2020 l0 -270 180 0 c153 0 180 2 180 15 0 8 7 15 15 15 8 0 15
7 15 15 0 8 7 15 16 15 15 0 16 18 10 198 -4 108 -11 198 -16 200 -5 2 -20 21
-32 43 l-22 39 -173 0 -173 0 0 -270z m287 172 l24 -15 -7 -150 c-9 -184 -10
-187 -114 -187 l-69 0 -3 171 c-2 94 0 178 3 187 5 14 18 16 75 14 39 -2 78
-10 91 -20z"/>
<path d="M3400 2025 l0 -155 60 0 60 0 0 155 0 155 -60 0 -60 0 0 -155z"/>
<path d="M3870 2281 c0 -5 -15 -24 -34 -43 l-33 -33 -4 -225 -4 -225 63 -3 62
-3 0 111 0 110 85 0 85 0 0 -110 0 -110 60 0 60 0 0 224 0 225 -35 37 c-19 20
-35 41 -35 45 0 5 -61 9 -135 9 -74 0 -135 -4 -135 -9z m207 -83 c20 -18 23
-31 23 -90 l0 -69 -92 3 -93 3 -3 65 c-2 52 0 67 14 77 10 7 14 14 8 15 -5 1
18 4 51 8 33 4 62 7 64 8 3 1 15 -8 28 -20z"/>
<path d="M3945 2136 c-4 -25 -4 -49 0 -55 3 -6 30 -11 60 -11 30 0 57 5 60 11
4 6 4 30 0 55 l-6 44 -54 0 -54 0 -6 -44z"/>
<path d="M1707 1573 c-4 -3 -7 -125 -7 -270 l0 -263 180 0 180 0 0 45 0 44
-117 3 -118 3 -3 223 -2 222 -54 0 c-29 0 -56 -3 -59 -7z"/>
<path d="M2180 1462 c0 -66 -3 -187 -7 -270 l-6 -152 196 0 197 0 0 45 0 45
-130 0 -130 0 0 75 0 75 90 0 90 0 0 40 0 40 -89 0 -89 0 -4 58 c-6 90 -11 87
131 87 l124 0 3 38 4 37 -190 0 -190 0 0 -118z"/>
<path d="M3230 1492 c0 -49 -3 -170 -7 -269 l-6 -181 57 -3 c31 -2 61 -2 66
-1 12 4 12 95 3 355 l-6 187 -54 0 -53 0 0 -88z"/>
<path d="M3550 1555 c-7 -14 -17 -25 -22 -25 -4 0 -8 -7 -8 -15 0 -8 -7 -15
-15 -15 -12 0 -15 -18 -15 -102 0 -57 -3 -160 -7 -230 l-6 -128 67 0 66 0 0
105 0 105 33 1 c17 1 46 3 62 5 17 2 40 2 53 -1 21 -5 22 -10 22 -110 l0 -105
59 0 c39 0 61 4 64 13 3 7 4 51 2 97 -2 47 -3 141 -4 210 l-1 125 -43 48 -42
47 -126 0 c-124 0 -126 0 -139 -25z m219 -72 c17 -14 21 -29 21 -86 l0 -68
-92 3 -93 3 -3 64 c-2 48 1 68 14 82 28 31 117 33 153 2z"/>
<path d="M3637 1463 c-4 -3 -7 -28 -7 -55 l0 -48 59 0 c33 0 63 5 66 10 3 6 3
30 -1 55 l-6 45 -52 0 c-29 0 -56 -3 -59 -7z"/>
<path d="M4040 1310 l0 -270 175 0 175 0 0 45 0 45 -115 0 -115 0 0 225 0 225
-60 0 -60 0 0 -270z"/>
<path d="M1820 4135 l0 -65 35 0 35 0 0 65 0 65 -35 0 -35 0 0 -65z m55 35 c0
-8 -10 -16 -22 -18 -22 -3 -32 16 -16 32 12 11 38 2 38 -14z m3 -58 c3 -18 -1
-22 -22 -22 -19 0 -26 5 -26 18 0 39 43 43 48 4z"/>
<path d="M1932 4138 c3 -57 5 -63 26 -66 12 -2 22 1 22 7 0 6 -7 11 -15 11
-22 0 -19 47 3 53 16 4 16 5 0 6 -11 1 -18 9 -18 20 0 11 8 22 18 24 10 3 6 5
-11 6 l-28 1 3 -62z"/>
<path d="M3150 4135 l0 -65 35 0 35 0 0 65 0 65 -35 0 -35 0 0 -65z m60 35 c0
-15 -7 -20 -25 -20 -24 0 -34 18 -18 33 15 15 43 7 43 -13z m0 -55 c0 -20 -5
-25 -25 -25 -20 0 -25 5 -25 25 0 20 5 25 25 25 20 0 25 -5 25 -25z"/>
<path d="M2530 4135 c0 -8 7 -15 15 -15 8 0 15 -4 15 -9 0 -5 11 -12 25 -15
14 -4 25 -11 25 -16 0 -6 7 -10 15 -10 8 0 15 -4 15 -9 0 -5 -26 -11 -59 -13
-48 -3 -63 -9 -85 -33 -29 -31 -34 -71 -11 -101 13 -18 14 -15 15 29 0 35 4
47 15 47 8 0 15 5 15 10 0 15 49 12 66 -4 18 -19 18 -36 -1 -36 -8 0 -15 7
-15 15 0 8 -4 15 -10 15 -17 0 -12 -77 6 -84 8 -3 12 -10 9 -16 -3 -5 2 -10
12 -11 10 0 26 -2 35 -4 35 -7 58 28 58 89 0 31 -4 56 -10 56 -5 0 -10 4 -10
9 0 6 17 11 38 13 30 2 38 7 40 26 3 19 -1 22 -27 22 -21 0 -31 5 -31 15 0 9
-9 15 -25 15 -16 0 -25 6 -25 15 0 12 -13 15 -55 15 -42 0 -55 -3 -55 -15z"/>
<path d="M1822 3973 l3 -68 30 0 c30 0 30 1 33 59 3 63 -4 76 -46 76 -22 0
-23 -3 -20 -67z m56 30 c-2 -10 -12 -18 -23 -18 -11 0 -21 8 -23 18 -3 13 3
17 23 17 20 0 26 -4 23 -17z m-3 -58 c0 -13 -8 -21 -22 -23 -17 -3 -23 2 -23
16 0 10 3 22 7 26 13 13 38 1 38 -19z"/>
<path d="M1937 4033 c-2 -5 -3 -35 -3 -68 1 -54 3 -60 24 -63 12 -2 22 1 22 7
0 6 -7 11 -15 11 -11 0 -15 9 -14 33 1 17 0 37 -2 44 -2 6 5 19 16 27 20 15
20 15 -2 16 -12 0 -24 -3 -26 -7z"/>
<path d="M3152 3973 l3 -67 33 -3 32 -4 0 70 0 71 -35 0 -36 0 3 -67z m58 27
c0 -21 -33 -29 -45 -10 -9 15 4 30 26 30 12 0 19 -7 19 -20z m0 -55 c0 -18 -5
-25 -19 -25 -11 0 -23 5 -26 10 -11 18 3 40 25 40 15 0 20 -7 20 -25z"/>
<path d="M3086 3924 c-4 -9 -4 -19 -1 -22 2 -3 7 3 11 12 4 9 4 19 1 22 -2 3
-7 -3 -11 -12z"/>
<path d="M2185 3890 c-3 -5 -2 -10 4 -10 5 0 13 5 16 10 3 6 2 10 -4 10 -5 0
-13 -4 -16 -10z"/>
<path d="M3080 3870 c0 -5 5 -10 10 -10 6 0 10 5 10 10 0 6 -4 10 -10 10 -5 0
-10 -4 -10 -10z"/>
<path d="M3110 3870 c0 -6 7 -10 15 -10 8 0 15 2 15 4 0 2 -7 6 -15 10 -8 3
-15 1 -15 -4z"/>
<path d="M3080 3723 c0 -24 5 -43 10 -43 6 0 10 -7 10 -15 0 -8 9 -15 20 -15
14 0 18 5 13 18 -4 9 -10 19 -14 22 -5 3 -15 21 -23 40 l-15 35 -1 -42z"/>
<path d="M3294 3369 c-10 -13 -44 -78 -44 -85 0 -1 9 0 20 3 11 3 17 9 15 14
-3 4 2 12 11 17 10 6 14 19 12 37 -2 23 -5 26 -14 14z"/>
<path d="M2818 3093 c7 -3 16 -2 19 1 4 3 -2 6 -13 5 -11 0 -14 -3 -6 -6z"/>
<path d="M1668 3029 c-12 -6 -18 -22 -18 -46 0 -32 2 -35 23 -29 12 3 25 6 30
6 4 0 7 18 7 40 0 42 -10 48 -42 29z"/>
<path d="M1490 2730 c0 -5 -9 -10 -19 -10 -19 0 -35 -23 -24 -34 4 -3 28 -6
55 -6 53 0 71 18 45 45 -17 17 -57 20 -57 5z"/>
<path d="M1800 2595 c0 -8 5 -15 10 -15 6 0 10 7 10 15 0 8 -4 15 -10 15 -5 0
-10 -7 -10 -15z"/>
<path d="M1355 2580 c-3 -5 -2 -10 4 -10 5 0 13 5 16 10 3 6 2 10 -4 10 -5 0
-13 -4 -16 -10z"/>
<path d="M1590 2576 c0 -2 7 -6 15 -10 8 -3 15 -1 15 4 0 6 -7 10 -15 10 -8 0
-15 -2 -15 -4z"/>
<path d="M1215 2540 c-10 -11 -23 -20 -28 -20 -13 0 -57 -52 -57 -67 0 -9 17
-13 50 -13 28 0 50 -4 50 -10 0 -14 58 -12 62 2 3 7 18 11 37 10 25 -2 39 4
57 23 28 30 29 35 9 35 -8 0 -15 5 -15 10 0 6 -6 10 -13 10 -8 0 -22 9 -32 20
-13 14 -31 20 -60 20 -29 0 -47 -6 -60 -20z m78 -12 c4 -10 8 -9 17 2 9 12 10
11 5 -7 -7 -24 9 -32 19 -10 3 6 3 2 0 -10 -3 -13 -1 -23 5 -23 6 0 11 5 11
10 0 6 5 10 10 10 6 0 10 -7 10 -15 0 -19 -32 -33 -38 -17 -5 16 -20 15 -38
-3 -9 -8 -25 -14 -37 -14 -22 2 -22 2 1 6 12 2 20 9 17 14 -4 5 1 9 9 9 9 0
16 5 16 10 0 6 -7 10 -15 10 -8 0 -15 5 -15 10 0 6 -9 10 -20 10 -11 0 -20 5
-20 10 0 15 57 12 63 -2z m-53 -38 c0 -12 -8 -12 -35 0 -18 8 -17 9 8 9 15 1
27 -3 27 -9z"/>
<path d="M1548 2533 c7 -3 16 -2 19 1 4 3 -2 6 -13 5 -11 0 -14 -3 -6 -6z"/>
<path d="M2430 2505 c-12 -14 -11 -18 0 -25 10 -6 18 -4 23 6 13 23 -7 39 -23
19z"/>
<path d="M2136 2459 c-11 -10 -16 -22 -12 -26 4 -5 13 0 20 10 7 9 20 17 29
17 9 0 19 5 22 10 11 18 -40 9 -59 -11z"/>
<path d="M2200 2455 c0 -18 19 -40 26 -32 4 4 0 15 -9 24 -9 10 -17 13 -17 8z"/>
<path d="M1443 2433 c9 -2 23 -2 30 0 6 3 -1 5 -18 5 -16 0 -22 -2 -12 -5z"/>
<path d="M2305 2410 c-3 -5 -2 -10 4 -10 5 0 13 5 16 10 3 6 2 10 -4 10 -5 0
-13 -4 -16 -10z"/>
<path d="M2437 2108 c-4 -99 -7 -221 -7 -270 l0 -88 59 0 c44 0 60 4 65 16 3
9 6 58 6 110 l0 94 55 0 c43 0 55 -3 55 -15 0 -9 14 -29 30 -45 27 -27 30 -35
30 -95 l0 -65 60 0 60 0 0 95 c0 57 -4 95 -10 95 -17 0 -50 39 -50 60 0 11 7
20 15 20 8 0 15 7 15 15 0 8 5 15 10 15 15 0 13 153 -2 168 -8 8 -45 12 -99
12 -87 0 -88 0 -106 30 -17 29 -19 30 -99 30 l-81 0 -6 -182z m278 92 c17 -14
21 -130 5 -130 -5 0 -10 -7 -10 -15 0 -12 -16 -15 -80 -15 l-80 0 0 88 0 87
75 -2 c42 -1 82 -7 90 -13z"/>
<path d="M2580 2125 l0 -55 60 0 60 0 0 55 0 55 -60 0 -60 0 0 -55z"/>
</g>
</svg>
